<?xml version="1.0" encoding="UTF-8" standalone="no"?>
<!-- Created with Inkscape (http://www.inkscape.org/) -->

<svg
   xmlns:dc="http://purl.org/dc/elements/1.1/"
   xmlns:cc="http://creativecommons.org/ns#"
   xmlns:rdf="http://www.w3.org/1999/02/22-rdf-syntax-ns#"
   xmlns:svg="http://www.w3.org/2000/svg"
   xmlns="http://www.w3.org/2000/svg"
   xmlns:sodipodi="http://sodipodi.sourceforge.net/DTD/sodipodi-0.dtd"
   xmlns:inkscape="http://www.inkscape.org/namespaces/inkscape"
   version="1.1"
   id="svg2"
   width="997.33331"
   height="966.66669"
   viewBox="0 0 997.33331 966.66669"
   sodipodi:docname="worker.svg"
   inkscape:version="0.92.1 r15371">
  <metadata
     id="metadata8">
    <rdf:RDF>
      <cc:Work
         rdf:about="">
        <dc:format>image/svg+xml</dc:format>
        <dc:type
           rdf:resource="http://purl.org/dc/dcmitype/StillImage" />
        <dc:title />
      </cc:Work>
    </rdf:RDF>
  </metadata>
  <defs
     id="defs6" />
  <sodipodi:namedview
     pagecolor="#ffffff"
     bordercolor="#666666"
     borderopacity="1"
     objecttolerance="10"
     gridtolerance="10"
     guidetolerance="10"
     inkscape:pageopacity="0"
     inkscape:pageshadow="2"
     inkscape:window-width="1600"
     inkscape:window-height="1137"
     id="namedview4"
     showgrid="false"
     inkscape:zoom="0.48827585"
     inkscape:cx="572.11424"
     inkscape:cy="520.7008"
     inkscape:window-x="-8"
     inkscape:window-y="-8"
     inkscape:window-maximized="1"
     inkscape:current-layer="svg2" />
  <path
     style="fill:#a9a9a9;stroke:none;stroke-width:1px;stroke-linecap:butt;stroke-linejoin:miter;stroke-opacity:1"
     d="M 156.67373,515.07769 482.30934,442.37289 843.78533,587.7825 494.59747,701.44775 Z"
     id="path4491"
     inkscape:connector-curvature="0"
     sodipodi:nodetypes="ccccc" />
  <g
     id="g3710">
    <path
       sodipodi:nodetypes="cssscscccsccccccscscccscsc"
       inkscape:connector-curvature="0"
       id="path3701"
       d="m 502.74441,190.8913 c 0,0 0.49491,15.48577 5.56351,28.5193 5.06859,13.03354 10.86128,32.58384 11.58536,44.16921 0.72409,11.58537 7.96494,31.85976 18.82622,44.89329 10.86128,13.03354 33.30793,39.8247 39.8247,43.44512 6.51676,3.62043 31.13567,9.41311 41.99695,3.62043 10.86128,-5.79268 68.78811,-41.27287 68.78811,-41.27287 v 11.58537 l 18.10213,5.79268 c 0,0 31.85975,-31.85975 31.85975,-45.61737 0,-13.75763 -8.31013,-8.21128 -8.31013,-8.21128 l 20.67729,-15.08369 15.52079,-24.65529 2.52364,-29.52688 -5.88053,-8.72541 -25.97923,1.48456 c 0,0 -5.79268,4.34451 -13.03353,21.72256 -7.24086,17.37805 -7.24086,-23.89482 -7.24086,-23.89482 0,0 -31.85975,-34.03201 -38.37652,-57.20274 -6.51677,-23.17073 -6.51677,-28.23933 -6.51677,-28.23933 0,0 -18.82622,32.58384 -55.75457,49.96189 -14.48171,6.51677 -49.96189,20.27439 -49.96189,20.27439 0,0 29.6875,-23.17073 28.96341,-40.54878 -0.72408,-17.37805 -1.44817,-14.48171 -1.44817,-14.48171 0,0 -55.98374,19.1062 -73.8567,40.54878 z"
       style="fill:#f5deb3;stroke:none;stroke-width:1px;stroke-linecap:butt;stroke-linejoin:miter;stroke-opacity:1" />
    <path
       sodipodi:nodetypes="ccccsscccsscccccscccccsccscsccc"
       inkscape:connector-curvature="0"
       id="path3703"
       d="m 848.43825,443.51502 c 5.83605,14.2344 9.93532,38.51438 -1.68793,36.67607 -23.15823,5.35412 -14.78244,3.62038 -72.16878,15.82012 l -64.4436,7.60289 c 0,0 -17.50333,8.67628 -26.79115,10.86128 -6.91484,1.62675 -20.23744,-0.36534 -25.70503,-1.81021 -3.71116,-0.98071 -19.18827,10.86128 -19.18827,10.86128 0,0 -10.49923,1.44817 -1.44817,-7.6029 9.05107,-9.05106 11.94741,-10.13719 11.94741,-10.13719 0,0 -1.81021,-4.34452 -8.32697,-2.17226 -6.51677,2.17226 -8.32699,5.43064 -13.75763,7.6029 -5.43064,2.17226 -15.20579,1.08613 1.08613,-14.48171 8.68902,-4.34451 19.5503,-6.51677 19.5503,-6.51677 0,0 -11.94741,-6.51676 -19.18826,-0.72408 -3.98247,2.17226 -7.24085,7.96494 -9.05107,11.22332 -1.81021,3.25839 -15.56783,13.75762 -11.22332,-5.06859 5.0686,-8.32699 18.82622,-20.99848 26.06708,-21.36052 7.24085,-0.36204 14.4817,0.36204 14.4817,0.36204 l -9.77515,-9.05106 c 0,0 -12.30946,-15.92989 -23.53278,-8.68903 -14.92072,12.07829 -18.27543,8.54755 -18.10213,8.32698 0,0 -5.79268,-2.89634 3.98247,-13.75762 8.68902,-6.15473 15.92988,-8.32698 22.0846,-7.96494 6.15473,0.36204 16.29192,3.62043 28.60137,15.92988 12.30945,9.77515 32.58384,22.80869 41.63491,24.6189 3.98247,0.72408 13.75762,0.72408 26.79116,-2.89634 13.03354,-3.62043 22.0846,-6.51677 22.0846,-6.51677 0,0 35.11814,-14.84375 44.53125,-17.74009 9.41311,-2.89634 15.56784,-5.79268 15.56784,-5.79268 0,0 23.17073,0 36.92835,-5.79269 10.13719,-1.81021 9.05107,-1.81021 9.05107,-1.81021 z"
       style="fill:#f5deb3;stroke:none;stroke-width:1px;stroke-linecap:butt;stroke-linejoin:miter;stroke-opacity:1" />
    <path
       sodipodi:nodetypes="cscccccccccc"
       inkscape:connector-curvature="0"
       id="path3705"
       d="m 699.82849,400.0699 c 0,0 -14.11966,15.20579 -53.22027,24.25686 -39.10061,9.05107 -39.8247,9.4131 -63.35747,-5.79268 l 2.5343,10.86128 6.87881,32.22179 v 0 c 0,0 2.89634,-10.86128 13.03354,-15.92987 9.30454,-4.98389 8.05547,-3.60061 19.91234,-5.0686 13.75763,3.62042 19.54844,6.69168 19.54844,6.69168 0,0 23.1726,-4.51942 39.46452,-7.77781 15.56784,-3.25838 27.87729,-4.70655 27.87729,-4.70655 z"
       style="fill:#f5deb3;stroke:#000000;stroke-width:1px;stroke-linecap:butt;stroke-linejoin:miter;stroke-opacity:1" />
  </g>
  <g
     id="g3857"
     style="fill:#ffd1c9;fill-opacity:1">
    <g
       id="g3849"
       style="fill:#ffd1c9;fill-opacity:1">
      <path
         style="fill:#ffd1c9;stroke:#000000;stroke-width:1px;stroke-linecap:butt;stroke-linejoin:miter;stroke-opacity:1;fill-opacity:1"
         d="m 733.13642,274.80313 c 0,0 -9.41311,29.6875 -16.65396,39.10061 -7.24086,9.41311 -12.6715,13.03354 -12.6715,13.03354 l -14.4817,-1.08613 c 0,0 -2.89635,0.36204 -3.98247,3.25838 -1.08613,2.89635 -1.69355,16.74381 0.57411,21.25448 l 2.77968,4.25467 22.35124,25.17683 22.0846,-20.99848 6.15473,-8.32698 15.34822,-36.38749 c 3.59626,-25.50682 10.26444,-33.68374 -8.90111,-44.27837 z"
         id="path3712"
         inkscape:connector-curvature="0"
         sodipodi:nodetypes="csccccccccccc" />
      <path
         style="fill:#ffd1c9;stroke:#000000;stroke-width:1px;stroke-linecap:butt;stroke-linejoin:miter;stroke-opacity:1;fill-opacity:1"
         d="m 769.03251,394.75636 c 0,-2.04802 -24.06427,-23.04025 -8.7041,-76.80085 3.58404,-10.24011 10.75212,-17.9202 31.23234,-14.33616 9.21611,1.02401 29.69633,0 56.32063,36.35241 11.77613,20.99223 11.77613,20.48022 13.82415,30.72034 2.04802,10.24011 1.02401,16.38418 -8.7041,22.01624 -4.09604,-3.07204 -12.28813,-25.08828 -12.28813,-25.08828 0,0 -4.60805,-1.53602 9.72811,51.71257 0,-1.53601 0,10.24012 -10.24012,14.84817 -10.24011,4.60805 -44.03248,11.26412 -50.68856,8.19209 -6.65607,-3.07204 -12.80014,-21.50424 -12.80014,-21.50424 z"
         id="path3845"
         inkscape:connector-curvature="0" />
    </g>
    <ellipse
       ry="13.012221"
       rx="18.264048"
       cy="463.15302"
       cx="765.36823"
       id="path3851"
       style="fill:#ffd1c9;fill-opacity:1;stroke:none;stroke-width:0.84860462" />
  </g>
  <path
     style="fill:#000000;stroke-width:1.33333337"
     d="m 495.82485,955.26902 -14.66666,-7.87117 -0.87744,-7.72292 c -0.48259,-4.2476 -2.26544,-33.0818 -3.9619,-64.076 l -3.08445,-56.3531 -116.22189,-67.31357 c -63.92204,-37.02247 -116.88919,-67.31358 -117.70477,-67.31358 -1.78931,0 -1.92423,1.41592 -2.15976,22.66667 -0.1016,9.16667 -0.71795,26.56667 -1.36966,38.66667 -0.6517,12.1 -1.20785,25.69308 -1.23586,30.20685 -0.028,4.51378 -0.49175,7.51378 -1.03052,6.66667 0.5836,7.49094 -19.72655,10.35237 -22.65256,12.68959 -0.26652,0.79954 -5.75339,-1.23964 -12.63475,-4.69567 l -12.16365,-6.10895 -0.81743,-9.71257 c -0.44959,-5.34192 -2.63481,-44.51259 -4.85605,-87.04592 -2.22123,-42.53334 -4.75652,-89.60539 -5.63396,-104.60457 l -1.59535,-27.27124 -8.66666,-4.89142 -8.66667,-4.89143 -0.37565,-15.504 c -0.2066,-8.52721 0.0441,-15.50401 0.55708,-15.50401 0.51299,0 5.78204,2.58704 11.70898,5.74897 l 10.77626,5.74897 9.33333,-2.24226 9.33333,-2.24226 11.33333,6.02314 c 6.23334,3.31273 13.23583,7.15428 15.5611,8.53678 2.81505,1.67372 4.52252,2.03672 5.10986,1.08636 0.48516,-0.785 1.15711,-7.25457 1.49322,-14.37682 0.33609,-7.12226 0.78989,-15.84307 1.00841,-19.37959 l 0.39733,-6.43004 -14.42576,-7.2348 c -10.84169,-5.43731 -14.58519,-7.98059 -15.06744,-10.23663 -0.35292,-1.651 -4.9007,-31.80183 -10.10617,-67.00183 -5.20547,-35.2 -13.94438,-93.33397 -19.41981,-129.1866 -5.47543,-35.85263 -9.71919,-65.42272 -9.43058,-65.71133 0.28861,-0.28862 7.19508,-1.66919 15.34772,-3.06796 l 14.82298,-2.54322 52.35457,11.3244 c 28.79501,6.22842 57.15457,12.2792 63.02124,13.44619 5.86667,1.16697 11.07577,2.48555 11.5758,2.93015 0.50003,0.4446 2.47041,12.80837 4.37864,27.47504 1.90824,14.66666 3.68337,27.68005 3.94476,28.91862 0.34889,1.65318 -1.25051,2.87255 -6.01503,4.58584 -3.56965,1.28363 -6.30789,2.51626 -6.08498,2.73916 0.52341,0.52343 161.65647,30.55263 200.74518,37.41143 l 29.8777,5.24258 11.88007,-5.78215 c 6.53403,-3.18018 12.10229,-5.78215 12.37392,-5.78215 0.27163,0 0.90913,2.76913 1.41667,6.15363 0.88529,5.9036 1.22437,6.29168 8.34566,9.55192 6.0762,2.78177 9.49156,3.40571 18.82556,3.43909 9.78608,0.0351 12.63143,-0.5113 20.06938,-3.85337 20.08274,-9.0237 53.77997,-29.95558 66.19219,-41.11695 7.38228,-6.63832 14.39779,-16.59564 15.85795,-22.50765 0.88576,-3.58632 3.28319,-5.15534 3.28319,-2.14871 0,3.15369 -8.23908,29.9422 -10.07827,32.76847 -2.80697,4.31341 -2.45481,5.09718 3.07827,6.85098 4.99724,1.58396 5.00352,1.58107 11.36628,-5.23845 6.38301,-6.84123 16.79538,-26.27597 19.44849,-36.30071 l 1.34139,-5.06841 -6.24475,0.78855 c -5.97036,0.7539 -5.65889,0.50202 7.08859,-5.73234 7.33333,-3.58648 16.14964,-9.03188 19.5918,-12.10088 7.80486,-6.95876 13.0847,-17.47164 14.03433,-27.94426 0.95612,-10.5442 -0.32288,-16.57976 -4.58739,-21.64784 -3.15452,-3.74894 -4.10904,-4.11924 -9.15272,-3.55074 -10.22822,1.15287 -21.18072,11.8257 -29.99305,29.2272 -3.62547,7.15914 -8.47096,12.89002 -5.90377,6.98252 2.25405,-5.18688 2.2591,-13.09688 0.0137,-21.39214 -1.26905,-4.68822 -2.68885,-8.74152 -3.15512,-9.00735 -0.46628,-0.26584 -13.69168,0.19109 -29.38977,1.01539 l -28.54201,1.49872 0.26121,10.66666 c 0.72849,29.74876 -15.66545,47.4625 -43.75253,47.27482 -20.56536,-0.13743 -33.20731,-10.35328 -40.64074,-32.84144 -3.76033,-11.37607 -6.04302,-14.59215 -9.43362,-13.29106 -1.60586,0.61623 -2.01698,3.37308 -2.01698,13.52532 0,8.31823 -0.69532,14.41547 -2,17.53802 -1.1,2.63268 -2,7.43268 -2,10.66666 0,3.234 -0.82564,7.85604 -1.83476,10.2712 l -1.83476,4.3912 7.78159,1.60727 c 4.27988,0.88399 8.18029,2.25237 8.66759,3.04084 0.4873,0.78847 -0.96699,3.28655 -3.23174,5.55131 l -4.11774,4.11773 -6.38175,-5.39775 c -7.21011,-6.09838 -8.07429,-8.8457 -5.32269,-16.92122 l 1.92932,-5.66224 -6.16087,3.14784 c -4.44956,2.27346 -7.86171,3.03214 -12.28409,2.73133 -7.24094,-0.49252 -7.24782,-0.31833 -0.56284,14.25017 5.26857,11.4818 13.91464,23.05842 24.58794,32.92196 8.51483,7.86886 9.84122,10.41138 5.43143,10.41138 -1.46667,0 -2.66667,-0.58387 -2.66667,-1.2975 0,-0.71362 -4.67228,-6.26362 -10.38284,-12.33333 -5.71056,-6.06971 -12.3216,-13.86 -14.69121,-17.31176 -4.72741,-6.88629 -13.59261,-24.68481 -13.59261,-27.28964 0,-0.90244 -2.88312,-4.52391 -6.40692,-8.04771 -5.50017,-5.50017 -6.92641,-8.10381 -10.07753,-18.39682 -2.01883,-6.59446 -5.19635,-15.95355 -7.06114,-20.79799 -4.50173,-11.69483 -4.01734,-13.74457 3.37363,-14.27591 5.76767,-0.41464 5.79924,-0.44466 4.90576,-4.66666 -0.4946,-2.33715 -1.25513,-7.48802 -1.69007,-11.44638 l -0.79081,-7.19701 -3.62956,4.4471 -3.62956,4.44712 -2.1332,-4.12516 c -1.17327,-2.26886 -3.76516,-9.43136 -5.75977,-15.91676 -3.33375,-10.8395 -3.62916,-13.6218 -3.65863,-34.4583 -0.0369,-26.0816 1.28469,-32.6652 10.43832,-51.999998 13.16423,-27.8061 40.06318,-54.5413 74.11948,-73.6681 10.78438,-6.0568 26.63581,-12.0335003 42.58617,-16.0569003 12.69949,-3.20339996 16.49979,-3.55449996 38.74716,-3.57999996 28.19293,-0.032 36.23097,1.66399996 54.66666,11.53690026 5.5,2.9455 12.7,6.2579 16,7.361 20.64791,6.9022 41.21524,26.7302 53.66976,51.7405 10.34704,20.7781 17.82319,50.688898 19.2284,76.929498 l 0.83519,15.5962 -4.20248,4.7863 c -5.56203,6.3348 -9.61701,14.5552 -15.50139,31.4249 -4.19662,12.03114 -4.89322,15.74706 -5.11084,27.26307 -0.30785,16.2901 -3.02896,22.77782 -14.50452,34.58183 -4.23221,4.35333 -7.55673,7.97424 -7.38785,8.04645 0.16889,0.0723 3.00707,2.2478 6.30707,4.83463 4.95174,3.8816 7.8393,4.98217 16.52784,6.29939 12.78057,1.93761 23.62264,6.63349 36.2757,15.71165 l 9.52988,6.83737 2.22804,-10.15565 c 4.8642,-22.17149 15.17676,-28.35116 53.80572,-32.24236 37.45155,-3.7726 74.17752,1.94807 101.63281,15.83093 l 10,5.05654 2.35668,9.26628 c 1.29617,5.09645 3.79815,17.66628 5.55995,27.93294 11.10356,64.70441 6.31428,107.57222 -13.73575,122.94663 -7.88851,6.04894 -12.59927,7.00584 -27.80176,5.6475 -19.94025,-1.78168 -19.65274,-1.81608 -20.10672,2.40588 -0.21685,2.01666 -0.52997,9.66666 -0.69582,17 -0.16587,7.33333 -0.78058,14.09421 -1.36603,15.02417 -0.58547,0.92996 -0.71752,5.12996 -0.29347,9.33334 0.57322,5.682 0.3996,7.12944 -0.67681,5.64249 -1.07652,-1.48709 -1.23448,-0.17493 -0.61597,5.11664 0.4575,3.91415 0.34626,6.81653 -0.2472,6.44975 -0.59347,-0.36679 -0.9826,1.38333 -0.86475,3.88916 0.11787,2.50581 -0.34861,4.90392 -1.0366,5.32912 -0.68799,0.4252 -0.88605,1.92258 -0.44013,3.32754 0.47374,1.49264 0.18182,2.55446 -0.70228,2.55446 -0.93599,0 -1.17003,1.0807 -0.61367,2.83364 0.6664,2.09966 0.45831,2.56105 -0.8034,1.78126 -1.23939,-0.76597 -1.44981,-0.39317 -0.77328,1.36987 0.89724,2.33817 -1.27948,11.31899 -3.07376,12.68189 -0.48273,0.36667 -1.85308,6.26742 -3.04524,13.11276 l -2.16756,12.44611 4.57179,5.98936 c 3.79529,4.97209 4.57178,7.11895 4.57178,12.64005 0,9.4708 -4.36622,18.81735 -10.77025,23.05535 -10.09013,6.67733 -40.58859,16.41447 -62.71889,20.02403 -4.56812,0.74509 -4.86702,1.11145 -5.66667,6.94556 -1.29364,9.43807 -1.06308,10.87095 1.90059,11.81157 2.63624,0.83671 2.7285,1.66888 2.33333,21.04286 l -0.41144,20.17169 24,6.82901 c 13.2,3.75596 27.52387,7.86535 31.83083,9.13198 l 7.83082,2.30294 -0.73906,5.51019 c -0.63795,4.75625 -0.20432,6.11923 3.16917,9.96143 4.56883,5.20361 4.96803,9.93741 1.33979,15.88766 -3.322,5.448 -10.32638,7.92903 -16.56882,5.86883 -10.65024,-3.51489 -14.17192,-14.56504 -6.94508,-21.79188 1.96576,-1.96576 1.78394,-2.19892 -2.22166,-2.84877 -2.39946,-0.3893 -13.32356,-0.86895 -24.27579,-1.06592 l -19.91315,-0.35814 -11.30873,15.79383 c -10.97937,15.33385 -11.26344,15.91908 -9.75352,20.09467 3.3342,9.22056 0.75643,19.01572 -5.92572,22.51684 l -3.4474,1.80628 -0.20251,33.56112 c -0.11133,18.45861 0.2475,33.561 0.7975,33.56085 0.55,-1.3e-4 1,3.63516 1,8.07844 0,5.04627 -0.50048,7.76938 -1.33334,7.25464 -0.73333,-0.45322 -1.33333,-0.28494 -1.33333,0.37396 -12.84741,11.16615 -24.22278,8.92152 -32.49377,4.38815 l -9.65777,-5.33121 -4.37126,-53.71544 c -2.40418,-29.54351 -4.47009,-53.80842 -4.59089,-53.92203 -0.99925,-0.93982 -4.88139,-0.61512 -7.9982,0.66896 -5.24431,0.87504 -6.83333,2.4191 -7.55477,2.20428 -4.84908,0.56649 -5.78469,5.94704 -4.66639,7.73835 1.48856,2.12522 1.99972,6.67385 1.99972,17.79489 0,14.69044 -0.0609,14.98777 -3.647,17.80861 -2.40219,1.88956 -4.93228,2.68011 -7.41251,2.31608 -3.04485,-0.44689 -4.12914,0.15056 -5.66564,3.12183 -5.71544,11.05244 -32.32386,23.94948 -49.22165,23.85763 -7.93121,-0.0431 -16.7307,-4.39018 -16.67746,-8.23887 7.72551,-15.14687 25.18061,-22.98375 37.02099,-39.97209 4.95696,-7.24428 5.21196,-8.52167 1.70116,-8.52167 -47.80123,14.75098 -114.18375,37.71862 -152.22456,51.28187 -7.86717,4.04222 -7.10914,27.51211 -7.20286,32.33701 -1.23772,61.42978 -0.97191,81.23611 -1.857,86.9883 -1.82244,15.69954 -29.53738,19.48692 -42.1468,12.80506 z m 87.96712,-282.77254 c 46.95141,-15.46721 116.86621,-38.53188 155.36621,-51.2548 38.5,-12.72292 77.04949,-25.38843 85.66554,-28.14559 8.61604,-2.75714 15.21604,-5.41069 14.66667,-5.89677 -1.26201,-1.11659 -43.3785,-18.65108 -43.78066,-18.22733 -0.84275,0.888 -0.9961,19.20189 -0.17187,20.52637 2.6228,4.21463 -4.48123,8.71655 -17.56167,11.12904 -14.68648,2.70871 -42.61621,0.98628 -52.32129,-3.22667 -1.70104,-0.73841 -2.35932,0.0675 -3.04632,3.72951 -0.59937,3.19493 -1.80304,4.96559 -3.80816,5.60199 l -2.93177,0.9305 2.97809,1.10168 c 2.28425,0.845 2.97811,2.1609 2.97811,5.64804 0,5.44253 -1.40863,6.76158 -10.8118,10.12431 -3.95351,1.41384 -11.6882,4.31695 -17.1882,6.45136 -33.83712,13.13131 -78.44748,29.63056 -80.11451,29.63056 -1.0784,0 -6.36144,-2.10898 -11.74009,-4.68664 -7.76341,-3.72052 -9.57208,-4.20152 -8.77381,-2.33333 0.55305,1.29432 1.24518,4.15331 1.53806,6.35331 l 0.5325,4 -1.91644,-4.15828 c -1.75148,-3.80038 -3.82786,-6.02743 -15.60659,-16.73916 -7.93852,-7.21939 -3.43532,-6.21028 16.22339,3.63548 11.07837,5.54842 20.36004,9.87052 20.62593,9.60464 0.26588,-0.2659 0.65175,-2.55176 0.85749,-5.07972 l 0.37407,-4.5963 -34.66667,-17.494 c -19.06666,-9.62169 -36.01666,-17.91212 -37.66666,-18.42317 -2.75287,-0.85266 -3,-0.50592 -3,4.20902 v 5.13823 l 14.37974,7.09503 c 12.44811,6.14193 14.77747,7.82109 17.34042,12.50011 1.62836,2.97278 2.80748,5.5383 2.62025,5.70113 -0.18723,0.16283 -15.34041,4.29247 -33.67375,9.17696 -18.33333,4.88449 -40.99678,11.02097 -50.36323,13.63661 l -17.02991,4.75572 -11.63676,-3.6123 c -6.40021,-1.98678 -16.12979,-5.68034 -21.62127,-8.20792 -12.42573,-5.71923 -29.59889,-16.32544 -28.72445,-17.74032 0.35941,-0.58154 2.45577,-1.41779 4.65859,-1.85835 l 4.00512,-0.80103 -2.6421,-4.478 c -3.16046,-5.35661 -5.83446,-23.48129 -5.0547,-34.26143 l 0.55778,-7.71144 -5.92729,-0.81242 c -7.82301,-1.07227 -17.55511,-1.03656 -17.55511,0.0644 0,0.48225 2.32479,3.93225 5.16619,7.66667 7.00748,9.2098 8.16715,11.74516 8.16715,17.85569 0,7.91884 -7.12611,15.5842 -10.06586,10.82758 -0.48945,-0.79194 0.29584,-2.27042 1.74508,-3.2855 6.29408,-4.40856 3.8721,-17.01632 -4.83922,-25.19073 -4.60396,-4.32022 -5.08472,-6.7662 -2.10462,-10.70804 1.69206,-2.23811 3.39379,-2.58166 11.5679,-2.33527 5.2712,0.15888 10.53618,0.59109 11.69998,0.96047 1.80188,0.57189 2.47175,-2.32907 4.51264,-19.54276 1.31818,-11.11788 2.67059,-20.92816 3.00539,-21.80062 0.55385,-1.44333 -12.784,-7.32433 -16.61128,-7.32433 -3.99787,0 -5.77773,-11.73339 -2.22688,-14.68033 1.67145,-1.38719 2.57309,-1.07292 5.26967,1.83673 3.7595,4.05659 3.51637,3.99871 8.0745,1.92189 3.29352,-1.50062 3.43588,-1.96101 2.57696,-8.33333 -1.1587,-8.59643 -1.26969,-8.74892 -6.34962,-8.72455 -5.72775,0.0275 -7.91132,1.64627 -7.36999,5.46371 0.298,2.10155 -0.6064,4.03807 -2.66267,5.70127 -2.69189,2.17733 -3.0535,3.4878 -2.66797,9.66848 0.38911,6.23794 0.13027,7.14953 -2.03,7.14794 -1.81335,-0.001 -2.2344,0.62266 -1.57329,2.33152 4.18533,10.81848 1.91485,15.68066 -11.78052,25.22767 -5.96028,4.15489 -15.42016,12.11397 -21.02197,17.68684 -14.5287,14.45361 -16.13899,22.42807 -6.47951,32.08755 5.75307,5.75307 14.11413,8.95072 26.51509,10.14059 7.76905,0.74542 9.44965,1.43532 14.14952,5.80846 26.25973,24.43419 68.97532,42.79515 107.48253,46.20054 5.41795,0.47914 10.62216,1.27684 11.56495,1.77266 2.87379,1.51139 -22.20529,0.004 -36.38081,-2.18646 -22.92672,-3.54299 -22.83211,-3.53518 -21.1288,-1.74503 1.86901,1.96428 39.26512,22.55005 41.09592,22.62244 0.71525,0.0283 39.71525,-12.60357 86.66666,-28.07079 z m -73.96712,6.02808 c -13.91686,-1.54786 -27.65405,-3.73701 -30,-4.78076 -2.18466,-0.972 -2.02897,-1.0621 0.86136,-0.49852 37.66556,7.34452 102.14379,0.86838 109.02659,-10.95056 1.23666,-2.12354 1.36809,-2.13348 1.40484,-0.10613 0.14558,8.03103 -26.18899,15.11232 -60.62612,16.3022 -8.8,0.30405 -18.1,0.31927 -20.66667,0.0337 z m 68.9426,-41.34516 c -16.71491,-8.41294 -30.05229,-15.84389 -29.63863,-16.51321 0.41367,-0.66932 -0.3105,-1.83558 -1.60926,-2.59168 -3.7833,-2.20255 -0.88686,-1.66327 4.26708,0.79448 2.59541,1.23765 4.09874,2.63359 3.34073,3.10207 -0.75857,0.46882 0.17563,1.55973 2.07792,2.42648 1.9768,0.90069 3.10072,0.99968 2.62581,0.23126 -0.45666,-0.7389 -0.48782,-1.34345 -0.0692,-1.34345 0.41858,0 10.34694,4.8 22.06302,10.66667 11.71608,5.86666 21.75902,10.64013 22.31765,10.60772 0.55863,-0.0324 -11.48131,-6.38544 -26.75539,-14.11783 -15.27409,-7.73237 -27.48077,-14.34916 -27.12596,-14.70399 0.35483,-0.35481 13.43591,5.7946 29.06907,13.66538 25.32795,12.75176 28.09109,14.45901 25.36803,15.67408 -2.99855,1.33798 -2.96032,1.42146 2.03533,4.44561 10.97632,6.64459 1.09055,2.28124 -27.96613,-12.34359 z m 29.90229,11.93007 c -2.46864,-1.07709 -4.1744,-2.27239 -3.79057,-2.65621 0.73696,-0.73696 8.94568,3.11673 8.94568,4.19966 0,0.75719 0.37553,0.86962 -5.15511,-1.54345 z M 399.15819,634.61868 c -0.91292,-1.1 -1.35986,-2 -0.99319,-2 0.36667,0 1.4136,0.9 2.32652,2 0.91292,1.1 1.35985,2 0.99319,2 -0.36667,0 -1.4136,-0.9 -2.32652,-2 z m 421.85899,55.25782 c 0.65577,-0.61003 1.06758,-10.11366 0.91513,-21.11918 -0.26223,-18.92837 -0.12853,-20.10292 2.47433,-21.7284 2.21324,-1.38218 2.75154,-3.09026 2.75154,-8.73097 v -7.0126 h -6.66667 -6.66667 l -0.10973,9 c -0.11173,9.16608 -0.0891,36.32991 0.0391,46.75652 0.0656,5.33711 0.2893,5.69048 3.07073,4.85013 1.65,-0.4985 3.53655,-1.40548 4.19233,-2.0155 z M 504.49152,657.12082 c 15.34642,-3.22172 39.08226,-10.10471 42.46452,-12.31399 3.76954,-2.46225 0.72224,-6.1228 -9.80275,-11.77545 -5.86397,-3.14936 -14.71177,-7.0487 -19.66177,-8.66519 -9.56323,-3.12299 -11.52024,-5.08084 -5.07869,-5.08084 5.66502,0 6.00146,-1.91782 0.67437,-3.84412 -2.52763,-0.914 -4.59568,-2.15007 -4.59568,-2.7468 0,-1.30076 26.8486,-10.74242 30.54748,-10.74242 1.42468,0 2.78432,0.8513 3.02142,1.89176 0.40547,1.7793 71.52378,38.10825 74.60151,38.10825 0.8738,0 1.24928,-2.28779 0.96384,-5.87274 -0.25717,-3.23 -0.10773,-5.65033 0.33199,-5.37852 0.43976,0.27183 6.73976,-1.62412 14,-4.2132 7.26024,-2.58906 20.70042,-7.28621 29.86709,-10.43808 34.81081,-11.96939 60.13909,-21.38444 58.76254,-21.84328 -2.70793,-0.90265 -1.44996,-5.63524 1.90412,-7.16345 4.32898,-1.97242 4.20459,-3.073 -0.57085,-5.05106 -2.14731,-0.88944 -4.24587,-2.50754 -4.66347,-3.59578 -0.90248,-2.35184 2.00471,-16.81998 5.44754,-27.11056 2.38417,-7.12624 2.59282,-7.33334 7.38884,-7.33334 6.07221,0 5.39936,-0.61349 -5.75736,-5.24953 l -8.82198,-3.66587 -15.51205,5.24338 c -14.49091,4.8982 -15.28705,5.34586 -12.09425,6.80061 2.8,1.27576 3.34238,2.33127 3.00068,5.8394 -0.45419,4.66296 -1.18635,5.19859 -15.70218,11.48728 l -8.61841,3.73375 21.60616,8.57216 c 20.36013,8.0778 21.60687,8.77721 21.61841,12.12772 0.009,2.63194 0.96472,3.93284 3.67892,5.00797 l 3.66667,1.45241 -3.77839,-0.72808 c -2.72,-0.52413 -3.50264,-0.28192 -2.79398,0.86471 0.57992,0.93832 0.4191,1.24341 -0.39138,0.74251 -0.75666,-0.46764 -21.99937,6.69008 -47.20601,15.90606 -25.20662,9.21599 -47.63024,17.23174 -49.83024,17.81279 -2.2,0.58106 -4.89176,1.28062 -5.98168,1.55459 -1.42672,0.35864 -2.1735,-0.97507 -2.66666,-4.76248 l -0.68499,-5.26063 -37.27731,-18.62465 c -28.18233,-14.08058 -36.64037,-18.85287 -34.66666,-19.56008 2.60776,-0.93439 -3.48378,-3.06732 -36.05603,-12.6249 -21.6042,-6.33925 -32.66666,-10.20109 -32.66666,-11.40374 0,-2.04944 7.82782,-51.44846 8.70877,-54.95846 0.46235,-1.84213 0.28779,-3.69101 -0.38791,-4.10861 -1.09353,-0.67584 -4.53545,21.4076 -11.91833,76.46836 -1.22912,9.16667 -2.27251,25.96667 -2.31864,37.33333 -0.0811,19.98169 0.0417,20.93851 3.70581,28.86843 3.9756,8.60408 8.19923,13.40706 14.87696,16.91758 4.44794,2.3383 5.53367,2.23917 28.66667,-2.6172 z m 64.42852,-43.04049 c -17.46903,-8.72941 -32.96186,-16.82657 -34.42852,-17.99366 -4.19387,-3.33726 5.90342,1.31441 37.33333,17.19886 25.25927,12.76587 32.20911,16.66649 29.69519,16.66649 -0.46099,0 -15.13099,-7.14226 -32.6,-15.87169 z m -2.09519,-6.87234 c -15.95,-8.0307 -29,-14.90119 -29,-15.26775 0,-0.36657 13.2,5.93872 29.33333,14.01177 16.13334,8.07306 29.33334,14.97566 29.33334,15.33914 0,0.91825 2.24088,1.98203 -29.66667,-14.08316 z m -169.55374,32.192 c -5.55406,-5.63884 -6.5653,-6.14197 -11.4151,-5.67947 -2.92665,0.27911 -7.22822,-0.15733 -9.55905,-0.96986 -8.22638,-2.86774 -5.16996,-0.30714 8.24713,6.90925 8.43134,4.53479 14.56599,7.03969 16.19642,6.61333 2.31772,-0.6061 1.9122,-1.40949 -3.4694,-6.87325 z M 351.42832,619.5377 c -2.20653,-2.06122 -4.73281,-6.15394 -5.61396,-9.09494 -1.40961,-4.70488 -1.25684,-6.1498 1.27168,-12.02752 3.5715,-8.30216 14.38199,-19.16675 30.83984,-30.99417 13.57223,-9.75367 15.21883,-12.4453 12.98856,-21.23182 -1.24487,-4.90441 -1.71644,-5.2865 -8.35899,-6.77305 -3.87182,-0.86647 -8.11915,-2.36473 -9.4385,-3.32947 -3.13256,-2.29057 -3.83737,-12.76288 -1.12008,-16.64236 1.81767,-2.59508 2.1898,-2.65009 5.0867,-0.75197 1.95355,1.28001 4.41203,1.72508 6.55628,1.18691 3.21608,-0.80719 3.38466,-1.24894 2.6946,-7.06084 -1.07124,-9.02238 -1.37329,-9.53312 -5.63782,-9.53312 -4.542,0 -6.87807,2.384 -8.07612,8.24186 -0.82289,4.02347 -4.0694,7.12068 -3.6584,3.49016 0.10787,-0.95261 -2.58831,-9.83202 -5.99145,-19.73202 -3.40315,-9.9 -7.5402,-22.96295 -9.19346,-29.02877 -1.65326,-6.06582 -3.22354,-10.81116 -3.48952,-10.54517 -0.26597,0.26597 0.10054,4.32892 0.81455,9.02876 0.71399,4.69984 3.10628,21.74518 5.31624,37.87851 2.20995,16.13333 4.25764,30.73772 4.55044,32.45419 0.44955,2.63538 -1.04988,4.15446 -9.63919,9.76549 l -10.17153,6.64464 6.66667,-0.65152 c 7.40424,-0.72361 14.4918,2.42517 15.67918,6.96577 0.56032,2.14266 -0.3754,2.5873 -6.84842,3.25426 -4.12359,0.42488 -18.59743,2.29304 -32.1641,4.15146 -13.56666,1.85844 -27.59324,3.75407 -31.17017,4.21252 l -6.50349,0.83356 6.46956,3.77844 c 7.61285,4.44614 7.29593,4.64536 -10.4014,6.5385 -13.46875,1.44078 -23.39375,0.33424 -28.00875,-3.12272 -3.46317,-2.59418 -5.19844,-8.2669 -3.71908,-12.15792 0.69703,-1.83334 0.97208,-3.33334 0.6112,-3.33334 -1.29437,0 5.87752,-12.82858 10.91609,-19.52592 7.50284,-9.97289 16.91027,-19.70297 22.22596,-22.98824 4.74131,-2.93029 6.84966,-6.09828 5.50572,-8.27282 -1.44913,-2.34475 -4.38957,-1.16998 -7.8101,3.12032 -1.90018,2.38333 -5.9403,7.16117 -8.97806,10.61741 -26.83033,30.52648 -32.27644,49.86405 -15.96322,56.68079 6.65372,2.78037 23.59857,3.21793 37.34352,0.9643 16.41417,-2.69125 16.57089,-2.66293 12.04917,2.17759 -2.10996,2.25871 -5.49496,4.55035 -7.52223,5.09252 l -3.68593,0.98577 3.58437,2.34858 c 1.97142,1.29172 4.3657,2.47893 5.32062,2.63826 0.95492,0.15934 3.04678,1.01083 4.64857,1.89223 7.22636,3.97637 20.59389,0.43973 29.66961,-7.84967 5.47816,-5.00353 5.25223,-2.84553 -0.24862,2.37472 -6.21948,5.90223 -11.95047,8.40862 -19.26712,8.4263 l -6.39955,0.0155 20.66667,11.28372 c 11.36666,6.20606 20.88012,11.2991 21.14101,11.31787 0.26088,0.0188 -1.33101,-1.65229 -3.53755,-3.7135 z m -47.47013,-26.38569 c -0.47452,-1.23658 -0.56277,-2.54834 -0.19611,-2.91501 0.36667,-0.36667 1.05492,0.34509 1.52944,1.58168 0.47452,1.23659 0.56278,2.54835 0.19611,2.91501 -0.36667,0.36667 -1.05492,-0.34509 -1.52944,-1.58168 z m 32.0652,-8.11258 c -0.50192,-0.50192 -4.35192,-1.65163 -8.55556,-2.55492 -6.39855,-1.37494 -6.88315,-1.65932 -2.97631,-1.74664 5.82372,-0.13014 14.66667,2.24746 14.66667,3.94348 0,1.47617 -1.80996,1.68292 -3.1348,0.35808 z m -3.30501,-7.75872 c 0.36921,-0.36922 6.1633,-1.84494 12.87576,-3.27939 6.71245,-1.43445 13.56037,-3.26547 15.21758,-4.06892 2.81151,-1.36308 2.84807,-1.32801 0.54628,0.52401 -3.15202,2.53614 -30.98309,9.16778 -28.63962,6.8243 z m 317.63706,23.15737 c 6.07881,-2.76969 5.79312,-7.88261 -0.62595,-11.20205 -5.08997,-2.63212 -13.23797,-2.60176 -13.23797,0.0493 0,2.10224 1.08693,2.42741 6.86777,2.05466 6.86211,-0.44248 5.60224,4.10596 -1.64084,5.92386 -2.31543,0.58114 -3.98552,0.18396 -5.1558,-1.22614 -1.42711,-1.71957 -1.40975,-2.09316 0.0989,-2.12812 1.26407,-0.0293 1.06731,-0.62017 -0.63633,-1.91085 -1.89717,-1.43731 -3.20475,-1.53197 -5.66667,-0.41024 -4.42056,2.01413 -4.05934,3.03088 2.46626,6.94197 6.10169,3.65702 12.2279,4.32364 17.53058,1.90759 z m -23.86615,-13.15633 c 1.07343,1.73684 6.00223,1.7398 6.00223,0.004 0,-0.73334 -0.64043,-1.33334 -1.42319,-1.33334 -0.847,0 -1.05691,-1.15401 -0.51849,-2.85042 0.80632,-2.54048 0.49996,-2.77306 -2.81735,-2.13892 -2.04712,0.39133 -4.78651,0.0468 -6.08753,-0.76576 -3.02314,-1.88799 -4.72266,-0.2723 -2.51352,2.38954 1.3337,1.60702 1.33929,2.03223 0.0267,2.03223 -1.31376,0 -1.31861,0.41116 -0.0232,1.97199 1.191,1.43505 2.30251,1.6156 4.08235,0.66305 1.61224,-0.86284 2.72733,-0.85329 3.27201,0.028 z m -11.33111,-10.66307 c 0,-0.73333 -0.6,-1.33333 -1.33333,-1.33333 -0.73333,0 -1.33333,0.6 -1.33333,1.33333 0,0.73333 0.6,1.33333 1.33333,1.33333 0.73333,0 1.33333,-0.6 1.33333,-1.33333 z m 120,-12.09273 c 0,-13.16068 -0.0593,-13.41766 -3,-13 -2.50681,0.35602 -3.38745,1.96042 -5.35681,9.7594 -3.50267,13.87112 -3.05944,14.86572 7.35681,16.50892 0.55,0.0868 1,-5.88399 1,-13.26832 z m -121.19493,6.36446 c -1.71132,-1.71132 -3.44673,-0.38866 -2.17979,1.66131 0.49078,0.79408 1.50314,1.06628 2.2497,0.60488 0.91066,-0.56283 0.88766,-1.30861 -0.0699,-2.26619 z M 299.15819,553.33413 c 11.36667,-0.45573 23.29125,-1.18245 26.49909,-1.61494 l 5.83242,-0.78634 -18.49908,-9.79392 c -10.17451,-5.38665 -18.95151,-9.65653 -19.50447,-9.48862 -0.55296,0.1679 -5.17216,3.60448 -10.26489,7.63682 -8.05666,6.37915 -9.2684,7.90614 -9.32796,11.75474 -0.0555,3.58781 0.37222,4.3002 2.26489,3.77204 1.28333,-0.35814 11.63333,-1.02403 23,-1.47978 z m 488.66666,-10.73812 c 4.09493,-2.03006 5.33333,-3.418 5.33333,-5.97733 0,-2.55556 -1.24444,-3.95556 -5.33333,-6 -4.51283,-2.25641 -8,-2.66667 -22.66667,-2.66667 -15.01571,0 -18.04645,0.37383 -22.66667,2.79583 -8.90294,4.66708 -7.68662,9.7256 3.1712,13.18877 9.32551,2.97442 35.112,2.15451 42.16214,-1.3406 z m -35.75027,0.63108 c -6.79387,-1.14125 -14.72588,-5.33858 -11.88085,-6.28693 0.90625,-0.30208 1.24557,-1.19996 0.75404,-1.99528 -0.56128,-0.90816 -0.1004,-1.14164 1.23888,-0.62769 1.17292,0.45009 2.33506,0.21089 2.58256,-0.53158 0.86118,-2.58357 20.03633,-4.30704 30.55312,-2.74612 5.3867,0.79951 9.99218,2.04819 10.2344,2.77484 0.24222,0.72667 1.40006,0.95295 2.57298,0.50286 1.33934,-0.51395 1.80016,-0.28047 1.23888,0.62769 -0.49153,0.79532 -0.15221,1.6932 0.75404,1.99528 3.11386,1.03796 -5.2102,5.08307 -13.12834,6.37979 -8.97431,1.46968 -15.76866,1.44437 -24.91971,-0.0928 z m 26.34553,-5.40537 c -4.45282,-1.74253 -6.30158,-1.48977 -4.35386,0.59527 0.92392,0.98905 2.86544,1.48825 4.31449,1.10932 2.59791,-0.67936 2.59845,-0.70314 0.0393,-1.70459 z m -93.18445,-11.01373 c 9.36757,-2.0356 9.44413,-2.02899 16.66667,1.43901 l 7.25585,3.48401 11.33333,-2.98054 c 8.53846,-2.24554 12.03772,-3.85698 14.18964,-6.53447 l 2.85631,-3.55391 -3.18964,-3.79068 c -1.75431,-2.08486 -3.18964,-5.03124 -3.18964,-6.54748 0,-2.60234 -0.54165,-2.71478 -9.66667,-2.0067 -6.84618,0.53125 -12.19706,1.94097 -18.3391,4.83152 -13.43171,6.32117 -28.00999,8.4166 -36.69828,5.27486 -2.32468,-0.84061 -5.71785,-1.15413 -7.54039,-0.69672 -3.31153,0.83115 -16.06002,10.3651 -15.11865,11.30647 3.98544,3.98545 22.52685,3.8846 41.44057,-0.22537 z M 648.09361,516.1444 c 4.90036,-3.45465 7.15964,-4.1734 12.83903,-4.08447 3.79071,0.0593 9.22393,0.7646 12.07381,1.56722 7.1946,2.0262 17.26304,0.14428 30.00294,-5.60796 5.76643,-2.60362 12.03955,-4.73384 13.94026,-4.73384 4.05476,0 43.3473,-5.21523 46.06393,-6.11399 1.27856,-0.423 0.20065,-2.15881 -3.46709,-5.58325 -2.92738,-2.73319 -6.99204,-7.51943 -9.03259,-10.6361 -2.04055,-3.11667 -4.13643,-5.66667 -4.65751,-5.66667 -0.52108,0 -4.49134,1.22248 -8.82281,2.71663 -13.80247,4.76119 -28.0966,7.95004 -35.63621,7.95004 -6.12446,0 -9.23819,-1.00938 -19.11119,-6.19536 -14.95548,-7.85564 -21.34336,-12.23549 -32.21702,-22.08965 -11.30278,-10.24303 -16.90994,-13.04832 -26.08066,-13.04832 -12.71017,0 -26.16365,7.87482 -26.16365,15.31457 0,6.34491 4.38505,5.59731 15.86384,-2.7046 8.73624,-6.31837 18.51588,-3.50603 28.0162,8.05669 3.01267,3.66667 7.67401,8.16667 10.35855,10 7.14369,4.87859 7.3454,7.70073 0.25612,3.58343 -9.34058,-5.42479 -14.63092,-5.81539 -23.04018,-1.70112 -9.10814,4.4562 -18.1212,16.04811 -18.1212,23.30612 0,6.15102 6.69194,4.94751 9.07088,-1.63136 3.48391,-9.63457 12.86246,-13.93602 24.51868,-11.24544 3.52575,0.81384 6.41044,1.86323 6.41044,2.33198 0,0.46874 -3.15,1.64604 -7,2.61621 -10.20089,2.57056 -16.75088,6.2676 -19.71398,11.12731 -5.01306,8.22173 -1.93355,11.11493 6.05812,5.69162 6.23788,-4.23313 14.57153,-6.56717 19.16825,-5.36852 3.34375,0.87194 3.37783,0.9723 0.82615,2.43295 -4.1158,2.356 -14.0052,12.31557 -14.0052,14.10457 0,2.30046 4.56092,0.57522 11.60209,-4.38869 z m -12.42883,-1.65131 c 2.84531,-3.23093 4.79703,-5.87441 4.33718,-5.87441 -1.36324,0 -11.51044,9.54012 -11.51044,10.82181 0,2.28266 2.05325,0.86652 7.17326,-4.9474 z m -19.17326,-0.54108 c 0,-0.73333 -0.63542,-1.33333 -1.41203,-1.33333 -0.77661,0 -1.0412,0.6 -0.58797,1.33333 0.45322,0.73334 1.08864,1.33334 1.41202,1.33334 0.32339,0 0.58798,-0.6 0.58798,-1.33334 z m -8.3492,-4.92064 c -1.2397,-1.23968 -2.70088,-1.80705 -3.24711,-1.26082 -0.54623,0.54621 -0.11053,1.55132 0.96825,2.23354 3.2461,2.0529 4.6887,1.43714 2.27886,-0.97272 z m 175.34919,-15.08708 c 17.49492,-2.86309 47.88989,-9.24386 58.64755,-12.31178 l 10.568,-3.01383 -0.82214,-7.33334 c -2.31472,-20.64718 -3.7248,-26.82584 -5.92068,-25.9431 -7.97429,3.2056 -28.42605,7.36816 -34.47474,7.01666 -3.85112,-0.22378 -7.15112,0.0215 -7.33333,0.54496 -0.18223,0.52351 -5.60616,2.47808 -12.0532,4.3435 l -11.72188,3.39164 -3.02324,-3.51472 c -6.21448,-7.22476 -22.63527,-4.96618 -27.48646,3.7806 -1.58842,2.86397 -1.66518,3.96182 -0.3677,5.2593 1.29748,1.29748 2.20881,1.029 4.36574,-1.2862 1.91231,-2.05262 4.20287,-2.89456 7.67403,-2.8207 4.88771,0.104 4.90333,0.1216 1.28139,1.44444 -2.59868,0.94912 -3.66667,2.26405 -3.66667,4.51449 0,4.2044 4.00959,6.17899 10.45439,5.14843 3.53962,-0.56602 5.54506,-0.29222 6.25332,0.85377 0.75485,1.22137 0.27286,1.48571 -1.7463,0.95768 -6.47889,-1.69427 -10.71158,6.09537 -6.08809,11.20427 2.05331,2.26888 2.05331,2.43832 0,2.43832 -2.86009,0 -3.29354,-1.32749 -0.052,2.79349 0.49263,3.7247 2.88956,4.91318 15.51201,2.53212 z M 618.15969,481.5592 c 5.51505,-5.51506 8.64745,-7.48403 14.31789,-9 l 7.25842,-1.94052 -4.93591,-4.9359 c -8.42003,-8.41998 -17.89147,-8.02369 -26.4698,1.10752 -3.83849,4.08588 -9.63533,4.16079 -12.51292,0.16171 -2.09888,-2.91688 -2.13533,-2.85224 -1.31569,2.33333 0.46365,2.93334 1.44357,8.48334 2.17761,12.33334 l 1.33463,7 h 6.54314 c 6.12255,0 6.99695,-0.4538 13.60263,-7.05948 z m 97.02466,-1.0707 c 8.05603,-1.7277 9.37636,-3.98444 5.44343,-9.30401 -1.58927,-2.1496 -4.59623,-10.65628 -6.68212,-18.90375 -2.64663,-10.46452 -4.34573,-14.91466 -5.62335,-14.7282 -1.00694,0.14696 -11.7308,2.36547 -23.8308,4.93002 -12.1,2.56456 -25.14999,5.07161 -28.99999,5.57125 -3.85,0.49963 -7,1.37552 -7,1.94641 0,2.10542 14.06401,13.59423 23.10543,18.87471 23.90354,13.96042 27.80158,14.99903 43.5874,11.61357 z M 904.6485,444.36492 c -0.90899,-2.39083 -2.52728,-3.59578 -5.39443,-4.01658 -2.25275,-0.33064 -4.09589,-0.0901 -4.09589,0.53455 0,0.62463 2.25,5.47071 5,10.76907 l 5,9.63338 0.39442,-6.7525 c 0.21694,-3.71388 -0.1899,-8.28944 -0.9041,-10.16792 z m -308.4622,10.39117 c 2.0602,-4.52167 9.76914,-10.03643 17.12367,-12.24981 9.52893,-2.86779 17.73576,-2.39456 25.28891,1.45824 l 6.5593,3.34584 12.66667,-2.78176 c 19.58362,-4.30082 18.5264,-3.73635 13.93786,-7.44176 -4.56454,-3.68604 -18.86723,-8.46816 -25.32718,-8.46816 -2.44296,0 -9.42976,1.1958 -15.52621,2.65732 -17.09464,4.09817 -25.10735,3.64105 -35.40622,-2.01992 -6.83614,-3.75762 -8.40793,-4.22386 -7.86624,-2.33334 0.37234,1.29943 1.70482,8.8126 2.9611,16.69594 1.25628,7.88333 2.69994,14.33333 3.20816,14.33333 0.50821,0 1.57929,-1.43816 2.38018,-3.19592 z m 226.30521,-18.95103 c 9.86403,-2.42397 20.31001,-7.20172 24.45684,-11.186 3.49504,-3.35802 3.61868,-2.04612 -2.24459,-23.81541 -7.99992,-29.70221 -6.66274,-45.62113 1.77247,-21.10128 2.1916,6.37064 4.66069,11.58297 5.48687,11.58297 2.96777,0 8.36465,-5.46377 9.85381,-9.97597 4.04437,-12.25455 -10.23572,-39.16344 -31.59529,-59.53702 -12.71692,-12.12989 -25.50255,-17.1551 -43.63877,-17.15161 -15.23502,0.003 -19.01184,2.14333 -23.67447,13.41676 -6.81408,16.47527 -7.81028,35.58634 -2.87988,55.24784 2.15472,8.59262 10.75953,24.92556 9.13185,17.33334 -0.57042,-2.66078 -0.41229,-3.55359 0.47234,-2.66667 1.62004,1.62425 16.18478,44.42857 16.18909,47.57811 10e-4,1.41112 1.36476,2.47105 3.66973,2.8541 5.92871,0.98527 24.35569,-0.45492 33,-2.57916 z M 776.30589,316.69781 c 1.73125,-1.51019 3.78125,-2.7458 4.55556,-2.7458 1.63962,0 1.5613,0.0665 -3.70327,3.14934 l -6.04802,5.41429 z M 629.82485,427.24958 c 21.32608,-4.47954 47.75926,-14.26146 63.62889,-23.54661 5.2786,-3.08845 5.51368,-3.4736 3.77745,-6.18885 -1.01828,-1.5925 -4.39984,-8.59544 -7.51456,-15.56211 -3.11472,-6.96667 -8.9412,-17.94259 -12.94773,-24.39093 -7.74947,-12.47244 -9.93883,-20.67997 -6.98743,-26.1947 2.88611,-5.39273 0.2617,-4.54979 -10.91797,3.50683 -14.85828,10.70759 -25.31305,16.9568 -35.70532,21.3424 -7.46737,3.15128 -10.51173,3.66285 -22,3.69689 -11.15925,0.0331 -14.29981,-0.44341 -19.26057,-2.92213 -3.25999,-1.62891 -6.10381,-2.78508 -6.31963,-2.56928 -0.95248,0.95249 10.29095,62.64413 11.7339,64.38277 2.67081,3.21814 9.24849,7.4821 14.35973,9.30866 6.75989,2.41572 13.53271,2.20812 28.15324,-0.86294 z m 87.72997,-56.10298 c 3.74115,-3.82654 13.11541,-19.64846 12.06496,-20.36328 -3.66424,-2.49351 -25.8672,-11.55261 -27.53621,-11.23513 -1.2423,0.23631 -4.20547,3.33676 -6.58482,6.88993 -4.28589,6.40022 -4.30449,6.49741 -2,10.45705 2.45059,4.21071 17.0313,18.39017 18.91055,18.39017 0.60452,0 2.92,-1.86244 5.14552,-4.13874 z m -19.47036,-32.19961 3.07372,-3.67169 15.33333,6.79813 c 8.43334,3.73897 16.23334,7.05519 17.33334,7.36937 1.36846,0.39086 3.64514,-2.49094 7.21004,-9.12645 10.90428,-20.29661 16.78996,-39.29492 16.78996,-54.19609 0,-6.05905 -0.41734,-6.93539 -5,-10.49913 -7.59327,-5.90498 -7.85978,-5.96491 -13.56983,-3.05187 -4.38629,2.23773 -5.57719,3.71945 -6.73825,8.38377 -3.92727,15.77694 -15.45818,36.91899 -24.10304,44.19316 -3.42484,2.88182 -4.85459,3.23642 -10.40075,2.57956 -9.31301,-1.103 -11.80523,0.69734 -12.88065,9.30475 -0.6538,5.23284 -0.30272,8.46214 1.34133,12.3381 l 2.22692,5.25008 3.15508,-6 c 1.73529,-3.3 4.53825,-7.65226 6.2288,-9.67169 z M 540.97125,265.44938 c 7.66907,-3.20435 11.16701,-15.04853 9.54771,-32.32896 -1.06192,-11.33221 -2.57378,-12.90811 -11.74506,-12.24259 l -5.61572,0.40751 4.3923,2.39807 c 6.09254,3.32634 9.59666,9.59614 9.60272,17.1818 0.009,11.50854 -4.68908,17.20234 -11.59743,14.05485 -6.73629,-3.06909 -9.71161,-20.29028 -4.47641,-25.9096 2.57394,-2.76281 2.56956,-2.78121 -0.8184,-3.42887 -4.57452,-0.87446 -9.9197,0.67915 -11.62213,3.37807 -0.98131,1.55569 -0.882,4.47604 0.3377,9.93136 0.95027,4.2502 2.41173,11.7716 3.24769,16.7142 1.30799,7.7334 1.99039,9.15968 4.89362,10.22808 4.90476,1.80495 8.87824,1.69484 13.85341,-0.38392 z m 85.89984,-3.15784 c 9.55601,-4.40884 15.31831,-15.72029 14.09717,-27.67287 -1.34714,-13.18605 -4.36617,-16.66938 -16.14341,-18.6262 -6.21735,-1.03302 -7.16831,0.18728 -3.0502,3.91411 12.05239,10.90725 0.81121,33.81939 -15.12565,30.82961 -12.81695,-2.40448 -19.56339,-17.42145 -12.80592,-28.50485 2.62612,-4.30728 2.62726,-4.36183 0.0633,-2.98968 -3.3686,1.80285 -6.74823,6.64756 -6.74823,9.67369 0,1.3035 -0.66564,2.36999 -1.47921,2.36999 -1.51836,0 -1.10061,-6.75387 0.66663,-10.77748 0.7634,-1.73807 0.17952,-2.00109 -3.30642,-1.48947 l -4.23352,0.62135 0.79923,8.55869 c 1.62231,17.37288 11.91333,32.45864 24.46405,35.86219 7.20987,1.95519 16.25014,1.25381 22.80215,-1.76908 z M 516.42971,249.87389 c -1.70882,-11.04155 -6.32691,-26.58855 -7.89788,-26.58855 -2.7313,0 -2.73974,3.22876 -0.0357,13.67855 2.94234,11.37082 7.56499,23.19633 8.64528,22.11604 0.33963,-0.33963 0.0193,-4.48235 -0.71166,-9.20604 z m 26.35762,-13.4177 c 1.87428,-1.87428 0.71803,-5.17085 -1.81364,-5.17085 -2.21743,0 -3.77139,3.24733 -2.52164,5.26948 1.11299,1.80085 2.4666,1.77005 4.33528,-0.0987 z m 76.2306,-8.33518 c 2.06188,-2.48443 0.44273,-6.169 -2.71091,-6.169 -2.86421,0 -4.50346,2.95068 -3.33333,6 0.95935,2.50001 4.03821,2.5861 6.04424,0.169 z m -101.19308,-3.50234 c 1.61728,-1.04516 1.42592,-1.2964 -1,-1.31292 -1.65,-0.0112 -3,0.57959 -3,1.31292 0,1.67056 1.41499,1.67056 4,0 z m 124.35731,-5 c -0.46912,-3.08017 -1.36963,-4.33333 -3.11392,-4.33333 -2.28744,0 -2.25455,0.30577 0.48466,4.50629 1.61624,2.47846 3.0175,4.42846 3.11391,4.33334 0.0964,-0.0951 -0.12173,-2.12296 -0.48465,-4.5063 z m -107.02398,-9.25836 7.33334,-0.83708 -5.33334,-2.41732 c -9.40618,-4.26331 -20.86411,-2.67559 -26.08445,3.61452 -2.01092,2.42302 -0.0388,2.39352 24.08445,-0.36012 z m 36.83824,-2.96894 c 0.8277,-0.0583 2.28451,-1.98815 3.23735,-4.28851 3.81809,-9.21766 27.62492,-19.80146 40.55448,-18.02926 10.53716,1.4443 20.3338,8.0765 22.63195,15.32168 0.6341,1.9991 4.13649,2.22339 34.71779,2.22339 18.70691,0 34.01427,-0.21419 34.01638,-0.47597 0.003,-0.26179 -4.04619,-6.23496 -8.99619,-13.2737 -16.86521,-23.9819 -27.37733,-43.9928 -29.28467,-55.7463 l -0.72589,-4.4731 -12.2203,12.3179 c -6.72118,6.7748 -17.59379,16.1505 -24.16139,20.8348 -14.12863,10.0772 -38.29745,22.0229 -48.60775,24.0247 -8.37517,1.6262 -24.84281,2.3933 -26.0238,1.2123 -0.43492,-0.4349 3.42966,-6.0509 8.58795,-12.4801 5.15831,-6.4291 11.72476,-15.6458 14.59213,-20.4816 6.23259,-10.5111 10.28638,-19.7222 7.844,-17.8232 -15.58726,12.1193 -20.8422,15.8545 -31.01957,22.0486 -6.61061,4.0234 -19.81061,11.273 -29.33333,16.1103 -20.02695,10.1731 -21.98071,11.5281 -21.98071,15.2433 0,6.16168 1.0914,6.83696 6.68343,4.1352 6.24791,-3.0187 15.26042,-3.2295 21.77077,-0.5093 6.75253,2.82138 14.21247,9.72986 14.21247,13.16185 0,2.79579 0.33193,2.85516 11,1.96791 6.05,-0.50319 11.67721,-0.96259 12.5049,-1.02089 z m 39.16176,-2.72523 8.66667,-0.97418 -11.33333,-0.0704 c -6.23334,-0.0388 -12.83334,0.40998 -14.66667,0.99711 -2.70691,0.86691 -2.20576,1.06322 2.66667,1.04459 3.3,-0.012 9.9,-0.46132 14.66666,-0.99712 z m 317.4386,279.17477 c 0.064,-1.55327 0.37992,-1.8692 0.80554,-0.80556 0.38516,0.96249 0.3378,2.1125 -0.1052,2.55556 -0.44305,0.44305 -0.75818,-0.34446 -0.70029,-1.75 z M 585.15818,323.06245 c -3.66666,-1.27988 -9.55208,-2.35332 -13.07869,-2.38542 -7.15059,-0.0651 -7.40323,-2.13858 -0.42017,-3.44861 5.3762,-1.00857 14.1461,1.19968 18.37265,4.62621 4.37759,3.54902 2.88973,3.91774 -4.87379,1.20782 z m -21.4347,-8.37296 c -0.92268,-3.6763 1.87121,-13.59391 3.34116,-11.86023 1.31658,1.5528 0.11146,15.12275 -1.34307,15.12275 -0.64859,0 -1.54772,-1.46814 -1.99809,-3.26252 z m 164.8475,-63.40415 c -0.15271,-3.94803 7.63296,-18.18764 11.91376,-21.78969 3.60591,-3.03418 5.42229,-3.60544 10.41625,-3.276 3.3268,0.21946 6.25932,1.04005 6.5167,1.82354 0.25737,0.78348 -2.62764,2.8744 -6.41112,4.6465 -6.67406,3.12596 -17.53968,12.50534 -20.76998,17.92898 -1.14432,1.9213 -1.60988,2.10764 -1.66561,0.66667 z"
     id="path4006"
     inkscape:connector-curvature="0"
     sodipodi:nodetypes="ccsscsssscccscssscccssscccscccccscsscscscsssccscsscccsssscssscsscsssscccscssccssssccsccsscscccssscsscsssccccscscccccccsccssccccscssscsssccccsccccscsccccscssccccscscccsccscscscccccsccccsccccsccsccccccccccsccccscccccsssscccccsscscscscccsssccssccccccscsccccccccscccsccccccscscssccccccccccsccccccccccsscccscsccscssssssscccsccccccccssscsssscscccsccccssscsccscscccsccsccscscssccssccscssscssssscccccccccsccccccssccssccssscccscccccccsssccssccccccsssccccccccsccsscsscssccccsccccccscccssssccsccccsssssscscsccccccscccccccssssssscccccccsccsccccsccccccsccssccccccccsscsssssssssccccsscsscccccscsssssscsscccccscccccccscscscscccssccscccsssccsscsccscsscccsscccccscscscscsscscssssscssccccscsccccscsssssccccscccsccscccscssccsccsccscsssccccccccccscccssscsscccsccccscscccsccccsccccsccsccccccccscccsccsccccccccccsccscssccccscccscscccsccsccascssc" />
</svg>
