<?xml version="1.0" encoding="UTF-8" standalone="no"?>
<!-- Created with Inkscape (http://www.inkscape.org/) -->

<svg
   xmlns:dc="http://purl.org/dc/elements/1.1/"
   xmlns:cc="http://creativecommons.org/ns#"
   xmlns:rdf="http://www.w3.org/1999/02/22-rdf-syntax-ns#"
   xmlns:svg="http://www.w3.org/2000/svg"
   xmlns="http://www.w3.org/2000/svg"
   xmlns:sodipodi="http://sodipodi.sourceforge.net/DTD/sodipodi-0.dtd"
   xmlns:inkscape="http://www.inkscape.org/namespaces/inkscape"
   version="1.1"
   id="svg2"
   width="1333.3333"
   height="1600"
   viewBox="0 0 1333.3333 1600"
   sodipodi:docname="myavatar.svg"
   inkscape:version="0.92.1 r15371">
  <metadata
     id="metadata8">
    <rdf:RDF>
      <cc:Work
         rdf:about="">
        <dc:format>image/svg+xml</dc:format>
        <dc:type
           rdf:resource="http://purl.org/dc/dcmitype/StillImage" />
        <dc:title></dc:title>
      </cc:Work>
    </rdf:RDF>
  </metadata>
  <defs
     id="defs6" />
  <sodipodi:namedview
     pagecolor="#ffffff"
     bordercolor="#666666"
     borderopacity="1"
     objecttolerance="10"
     gridtolerance="10"
     guidetolerance="10"
     inkscape:pageopacity="0"
     inkscape:pageshadow="2"
     inkscape:window-width="1600"
     inkscape:window-height="1137"
     id="namedview4"
     showgrid="false"
     inkscape:zoom="0.295"
     inkscape:cx="666.66663"
     inkscape:cy="800"
     inkscape:window-x="-8"
     inkscape:window-y="-8"
     inkscape:window-maximized="1"
     inkscape:current-layer="svg2" />
  <path
     style="fill:#000000;stroke-width:1.44699717"
     d="m 407.48937,1507.135 c -5.44244,-4.6619 -22.70191,-13.0238 -26.92589,-13.0451 -3.54798,-0.017 -18.16839,-6.6103 -18.16839,-8.1922 0,-0.6551 -1.31833,-1.288 -2.92967,-1.4064 -1.61133,-0.1186 -2.92969,0.4339 -2.92969,1.2274 0,0.7934 -1.03577,0.4318 -2.30181,-0.8037 -1.26605,-1.2354 -3.41318,-2.2462 -4.77141,-2.2462 -1.35823,0 -4.21936,-2.7337 -6.35824,-6.0748 -4.15531,-6.4913 -9.14139,-13.5341 -25.3975,-35.8741 -25.9855,-35.7103 -41.14313,-57.4026 -52.08997,-74.5461 -6.52589,-10.2202 -14.44647,-22.1971 -17.60127,-26.6156 -4.77525,-6.6879 -28.02257,-48.8342 -33.80776,-61.2917 -0.91272,-1.9656 -4.5279,-9.4206 -8.03378,-16.567 -3.50585,-7.1465 -6.37429,-13.4813 -6.37429,-14.0778 0,-2.3591 -19.98879,-39.6237 -25.01203,-46.6295 -6.42179,-8.956 -4.49168,-16.3997 5.45219,-21.0269 4.56229,-2.123 11.20853,-10.9127 11.43713,-15.1257 0.0365,-0.6709 2.49907,-2.5968 5.47261,-4.2796 l 5.40641,-3.0596 22.97125,7.6471 c 31.64547,10.5346 43.01066,11.0804 50.37723,2.4188 1.05477,-1.2402 4.76953,-3.4858 8.25478,-4.9901 7.15948,-3.0904 31.65797,-19.6447 46.08951,-31.1439 14.0901,-11.227 27.07665,-26.9772 28.81982,-34.9529 1.5685,-7.1758 0.0868,-65.962 -2.49749,-99.0877 -1.99002,-25.5091 -4.50181,-53.28324 -5.23535,-57.89022 -1.53312,-9.62844 -3.6863,-25.29128 -5.69864,-41.45231 -3.69783,-29.69833 -6.43558,-44.71002 -8.36606,-45.87435 -1.18465,-0.7143 -2.7415,0.35301 -4.40261,3.01844 -3.67544,5.89751 -10.70351,8.91648 -22.47464,9.65426 -13.45047,0.84295 -20.82056,-1.26887 -29.02634,-8.31721 -7.15287,-6.14387 -15.73045,-18.81637 -18.33735,-27.09177 -0.86693,-2.75151 -3.24301,-10.53109 -5.28041,-17.28784 -2.03737,-6.75686 -4.88895,-13.83235 -6.3368,-15.72331 -6.69631,-8.74561 -17.86453,-45.57655 -19.89687,-65.61664 -0.43849,-4.32387 -1.23516,-12.04256 -1.77036,-17.15266 -0.5352,-5.11 -1.91677,-11.52477 -3.07016,-14.25504 -2.36978,-5.60945 -3.96243,-24.87457 -3.91745,-47.38637 0.0277,-13.86117 0.41492,-15.9881 4.43803,-24.37736 4.56307,-9.51522 15.99146,-23.43878 21.77205,-26.52561 1.81975,-0.97171 7.48619,-1.82752 12.59213,-1.90159 10.36348,-0.15051 19.58801,2.55961 35.74802,10.50246 5.69336,2.79836 12.74801,5.5267 15.67703,6.06282 4.99938,0.91521 5.28865,0.76908 4.72505,-2.38754 -0.89758,-5.02712 -3.35098,-21.63369 -3.55873,-24.08854 -0.61513,-7.26545 -1.50567,-16.93247 -2.83105,-30.73179 -0.83044,-8.64784 -1.54355,-23.28119 -1.58464,-32.51864 -0.0659,-14.9358 0.24927,-17.11119 2.8497,-19.64881 2.7226,-2.65674 2.78017,-3.2619 0.83495,-8.77143 -1.80798,-5.12061 -1.80898,-7.74122 -0.011,-19.45209 2.38443,-15.50021 4.76382,-24.44554 7.32206,-27.52787 0.97866,-1.17925 2.51298,-5.55318 3.40957,-9.71977 0.89658,-4.1667 2.61876,-9.44137 3.82704,-11.72149 1.20836,-2.28024 2.19701,-6.16027 2.19701,-8.62242 0,-2.46217 4.26209,-18.59338 9.47129,-35.84713 6.91766,-22.91263 11.89175,-36.27283 18.44897,-49.55372 14.59084,-29.55209 15.2054,-32.44425 15.25211,-71.78537 0.0417,-35.30468 0.6517,-38.88551 6.95312,-40.83715 2.05762,-0.63723 2.21329,-1.27092 0.83957,-3.41725 -2.96736,-4.63669 3.10932,-11.20991 9.45887,-10.23156 1.53236,0.23607 1.37866,-2.35195 -0.19598,-3.30167 -0.71213,-0.42936 -0.26619,-2.99497 0.99085,-5.70133 l 2.28554,-4.92056 6.69949,5.76062 c 6.13961,5.27936 14.75596,10.67323 14.75596,9.23734 0,-0.32868 -3.30487,-3.05693 -7.34404,-6.06282 -9.05402,-6.73768 -15.8048,-15.7069 -13.50837,-17.9478 2.99835,-2.92581 8.51802,0.0515 13.21769,7.12834 3.9002,5.87338 14.18138,14.5477 17.2427,14.5477 0.48503,0 -2.81951,-3.30103 -7.3435,-7.33566 -4.52388,-4.03452 -7.86302,-7.68912 -7.42018,-8.12125 0.44275,-0.43214 2.9375,1.18997 5.54384,3.60452 2.60626,2.41457 6.2218,4.82601 8.03453,5.35881 3.04351,0.89451 3.29585,0.51983 3.29585,-4.89268 0,-3.41874 1.52619,-8.80017 3.66213,-12.91327 2.01409,-3.87854 3.66202,-8.08384 3.66202,-9.34499 0,-3.39396 18.92138,-24.77808 37.95701,-42.89719 9.99235,-9.51137 27.76535,-20.01448 40.99764,-24.22791 5.26316,-1.67592 10.65583,-4.97524 16.11309,-9.85806 11.16108,-9.98661 16.8362,-13.74046 24.05522,-15.91168 3.36562,-1.01221 9.74484,-3.45619 14.1759,-5.43103 19.83827,-8.84148 81.46982,-13.39219 118.20065,-8.72761 7.9517,1.0098 26.14632,-2.27836 31.94374,-5.77291 1.61135,-0.97127 6.22552,-2.19908 10.25372,-2.72847 15.59541,-2.04956 27.09925,-4.24421 27.09925,-5.1699 0,-0.92953 33.54563,-3.719832 57.82035,-4.809466 27.92574,-1.253504 67.03893,6.657216 104.77498,21.190956 21.01464,8.09362 31.15152,11.76554 39.53498,14.32087 4.42262,1.34808 12.00316,4.22437 16.84537,6.39183 11.66903,5.22298 34.81105,19.2308 34.52785,20.89954 -0.4123,2.42957 -7.442,0.43633 -16.62677,-4.7144 -12.07559,-6.77187 -15.71315,-8.50718 -20.08308,-9.5804 -3.50775,-0.8616 -3.47704,-0.76233 0.72724,2.35537 9.03116,6.69727 49.74111,46.07441 69.86461,67.57742 19.5722,20.91402 45.2154,66.16487 53.1856,93.85376 1.4693,5.10453 5.0702,11.62394 9.7563,17.66488 11.0024,14.18204 16.445,24.38658 23.0154,43.1517 7.8885,22.52938 13.442,63.45005 16.3363,120.37619 0.7816,15.3677 2.397,29.98467 4.1598,37.63861 4.0082,17.40405 5.3313,41.0581 2.87,51.31122 -2.2834,9.51296 -4.4441,10.63496 -5.9166,3.07236 -2.5818,-13.2603 -4.6452,-20.45079 -5.5714,-19.4165 -2.3689,2.64516 -6.2815,20.8213 -7.3899,34.32912 -1.7769,21.66092 -4.8483,24.96945 -6.7684,7.29128 l -0.9834,-9.05532 -1.9906,7.86161 c -1.0947,4.32396 -2.4257,8.82654 -2.9577,10.00578 -0.532,1.17925 -1.0911,3.75214 -1.2422,5.71752 -0.3948,5.12983 -4.5389,19.43653 -8.2697,28.55049 -3.517,8.59059 -21.3688,31.14108 -33.173,41.90416 -10.5924,9.65823 -10.3116,12.75129 1.6459,18.12758 6.5017,2.92302 8.1466,4.14686 5.6752,4.22213 -4.7861,0.14557 -31.3166,-8.38401 -33.2221,-10.68097 -1.0507,-1.26672 -1.1239,-5.88347 -0.2285,-14.40619 1.4232,-13.54257 -0.6385,-48.60292 -3.2523,-55.31143 -0.8207,-2.10624 -0.9883,-3.82945 -0.3724,-3.82945 1.4163,0 1.0749,-19.54288 -0.4249,-24.30798 -0.6171,-1.96089 -3.3219,-6.58438 -6.0102,-10.27466 -5.7454,-7.88627 -9.4053,-20.37426 -9.4051,-32.09028 0,-4.60344 1.3078,-18.33994 2.906,-30.52551 3.8751,-29.54449 3.7949,-31.57107 -1.6754,-42.41413 -5.0538,-10.01726 -9.4634,-13.90212 -18.2227,-16.05425 -3.1421,-0.77198 -8.2265,-2.02476 -11.2985,-2.78398 -5.26116,-1.30018 -17.11905,-7.93803 -17.11905,-9.58287 0,-0.41509 2.80142,0.81369 6.2255,2.7306 3.42391,1.91692 7.79115,3.94264 9.70475,4.5016 5.6449,1.6488 2.2698,-1.84873 -5.00321,-5.18481 -6.43603,-2.95209 -22.64572,-17.14859 -22.64572,-19.83319 0,-0.78677 -0.76118,-1.43043 -1.69176,-1.43043 -1.08506,0 -0.9023,0.89719 0.50972,2.5015 1.21095,1.37575 2.62765,3.78784 3.14833,5.3602 0.62525,1.88799 -0.58497,1.15984 -3.56379,-2.14408 -5.1978,-5.76522 -14.51541,-19.46205 -14.51541,-21.33747 0,-2.28549 -12.33047,-13.68804 -17.57791,-16.25526 -9.54295,-4.66852 -15.06098,-7.99925 -18.88974,-11.40212 -2.09834,-1.86481 -8.70728,-6.17077 -14.68663,-9.56883 -5.97937,-3.39804 -13.15745,-7.692 -15.95132,-9.54202 -4.39542,-2.91071 -6.84081,-3.36374 -18.1549,-3.36374 -12.81221,0 -18.32683,1.38239 -20.6215,5.16917 -0.63094,1.04116 -3.80782,2.59219 -7.05983,3.44661 -4.69439,1.23359 -7.32524,1.0969 -12.76867,-0.66338 -7.77812,-2.51523 -11.06847,-2.72867 -21.69967,-1.40792 -9.49853,1.18 -16.47444,-0.99689 -26.6296,-8.30992 -7.25351,-5.22352 -8.39817,-5.58545 -16.84543,-5.32548 -4.98475,0.15342 -9.39275,0.15428 -9.7956,9.5e-4 -2.96497,-1.1206 -6.00064,-0.99132 -6.81221,0.2901 -0.61556,0.97191 -0.22016,1.10849 1.09281,0.37768 1.45258,-0.80864 1.6233,-0.68107 0.58071,0.43386 -0.81207,0.86855 -4.10794,1.58254 -7.32403,1.58682 -14.61413,0.0194 -31.08404,-0.87027 -34.58381,-1.86813 -2.17285,-0.61964 -7.56782,-0.30404 -12.45095,0.72824 -4.73923,1.00182 -15.20849,1.94297 -23.26497,2.09133 -8.0565,0.14848 -15.63697,0.59016 -16.84544,0.98146 -1.20848,0.3914 -4.9974,1.45369 -8.4196,2.36074 -3.42228,0.90695 -7.50685,2.99442 -9.07677,4.63872 -1.56991,1.64441 -4.37282,3.74518 -6.22861,4.66842 -3.23609,1.60988 -3.94237,6.23382 -1.21473,7.95229 0.62401,0.39313 1.60904,2.84864 2.18899,5.4568 0.57997,2.60817 1.92171,5.06679 2.98153,5.46366 1.05973,0.39676 2.38576,2.44382 2.9465,4.54889 1.51774,5.69661 0.94722,29.1816 -0.74914,30.83684 -1.80799,1.76435 -1.96336,10.8693 -0.18534,10.8693 0.70706,0 1.11641,-1.93975 0.90964,-4.31067 -0.20675,-2.37093 0.13469,-4.61857 0.75861,-4.99495 0.62401,-0.3763 1.38557,1.88518 1.69243,5.02539 0.30694,3.14033 0.0462,5.7097 -0.5793,5.7097 -0.62557,0 -1.13731,0.68117 -1.13731,1.51372 0,0.83255 0.65159,1.12071 1.44809,0.64044 0.83034,-0.50075 1.07589,0.0729 0.57567,1.34498 -0.47987,1.2201 -0.28288,2.21838 0.43759,2.21838 0.72047,0 1.4661,1.76887 1.65683,3.93085 0.38274,4.33684 1.36591,9.64837 1.78602,9.64837 0.64577,0 1.48663,12.43589 1.61947,23.95089 0.0922,8.04976 -0.50371,13.27788 -1.67177,14.65127 -1.44568,1.69972 -1.44413,2.1354 0.011,2.1354 1.36932,0 1.4126,0.48307 0.17402,1.93943 -2.25524,2.6516 -0.36485,11.17196 2.99682,13.50751 2.91221,2.02315 3.7845,10.88165 1.22363,12.42613 -1.95675,1.17999 -1.88325,7.86161 0.0868,7.86161 0.85319,0 1.14387,0.64322 0.64586,1.42935 -0.49789,0.78623 -2.1847,1.42946 -3.74847,1.42946 -1.98202,0 -2.84323,0.98585 -2.84323,3.25482 0,1.7902 -1.94026,5.32794 -4.31185,7.86171 -2.37159,2.53365 -3.52513,4.6741 -2.5634,4.75654 3.61181,0.30961 -10.19715,3.92325 -15.39439,4.02852 -2.98317,0.0601 -6.9382,0.69467 -8.78892,1.40963 -1.85062,0.71493 -7.31977,2.41165 -12.15368,3.77067 -4.83391,1.35894 -9.4481,2.84585 -10.25373,3.30426 -0.80572,0.45851 -2.66579,1.01597 -4.13353,1.23896 -1.46776,0.22298 -6.14556,2.01039 -10.39513,3.97212 -4.24945,1.96173 -8.98108,3.60753 -10.51464,3.65738 -2.23251,0.0729 -2.05837,0.38229 0.87374,1.55392 2.01409,0.80489 5.23392,1.75728 7.15517,2.11642 1.92126,0.35914 5.37509,1.6026 7.67505,2.76319 2.29996,1.16059 4.51828,2.09713 4.92949,2.08116 4.99059,-0.19329 6.60709,0.28634 6.60709,1.96023 0,3.86417 23.16006,5.35472 26.27607,1.69103 1.39282,-1.63764 2.56395,-1.82472 4.63902,-0.7411 1.52663,0.79727 2.77577,1.02669 2.77577,0.50964 0,-0.51704 0.9301,-0.18674 2.06683,0.73382 1.4293,1.15748 2.3628,1.20669 3.02603,0.15952 1.23177,-1.94489 9.55544,-1.36942 9.55544,0.6607 0,0.84466 1.15355,1.62554 2.56341,1.73509 1.40986,0.10968 7.50716,1.21088 13.54957,2.44716 6.04239,1.23627 12.81878,2.24828 15.05863,2.24892 2.23987,6.4e-4 8.04287,1.63186 12.8958,3.625 6.1807,2.53848 10.2313,3.36611 13.52431,2.76329 3.81461,-0.69832 5.36718,-0.16873 8.23336,2.80843 1.9427,2.01791 4.48389,3.66895 5.647,3.66895 2.46882,0 7.59275,4.21099 26.78155,22.00977 20.05515,18.60227 25.26951,23.1147 28.90243,25.012 1.76722,0.92291 3.2131,2.62018 3.2131,3.77176 0,1.23285 1.5059,2.16735 3.66215,2.27251 5.42936,0.26491 6.24595,0.43696 7.39456,1.55779 0.57591,0.56196 2.28898,0.37318 3.80672,-0.41938 1.51774,-0.79267 7.19878,-1.25247 12.62452,-1.02176 6.95701,0.29577 9.76804,-0.0761 9.53569,-1.25966 -0.46846,-2.38785 8.55021,-14.96033 12.04798,-16.79545 1.61134,-0.84531 3.44516,-2.32075 4.07531,-3.27885 0.6839,-1.03975 2.78896,-1.42109 5.22316,-0.94596 2.24272,0.43771 7.00051,0.0247 10.57299,-0.91798 3.57247,-0.94265 7.81369,-1.86108 9.42503,-2.04096 1.61124,-0.18 5.4375,-1.21537 8.50276,-2.30103 4.37381,-1.5492 5.81277,-1.59552 6.68695,-0.21527 0.85637,1.35218 3.08997,1.09531 9.66009,-1.11042 6.14179,-2.06196 13.12516,-2.97073 24.82003,-3.23016 14.95693,-0.33159 16.61448,-0.10078 20.48617,2.85527 2.80563,2.14205 6.22577,3.21946 10.24056,3.2261 3.31546,0.0107 10.87005,1.61353 16.78818,3.57343 5.91822,1.96002 12.26467,3.56358 14.1032,3.56358 1.83853,0 5.70932,0.96483 8.60169,2.14407 2.89209,1.17925 7.04046,2.14409 9.21851,2.14409 2.17804,0 5.16548,1.06454 6.63882,2.36556 1.47334,1.30114 2.67879,1.74572 2.67879,0.98788 0,-2.00289 -3.31159,-5.76115 -5.85933,-6.64965 -1.40574,-0.49024 -0.99449,-0.80692 1.14181,-0.87907 3.24463,-0.10968 14.86517,7.48232 22.30867,14.57483 2.0215,1.92613 5.0824,6.96731 6.802,11.20251 8.1219,20.00386 8.6665,18.42078 -6.3362,18.42078 -6.9773,0 -12.24186,0.43342 -11.69893,0.96312 0.54285,0.5298 10.80803,2.08105 22.81163,3.44746 29.7632,3.38787 55.5307,9.78989 72.2206,17.94319 3.9954,1.95186 9.5551,3.38411 13.1835,3.39633 13.2741,0.0451 17.369,6.13893 17.7537,26.4226 0.2593,13.68332 -0.1212,14.49968 -21.6422,46.45508 -8.2067,12.18558 -16.4819,25.37168 -18.3896,29.30253 -8.3798,17.26802 -12.1411,20.71667 -30.948,28.37554 -15.1951,6.18793 -38.1524,10.23403 -74.53102,13.13551 -14.34604,1.1443 -56.04524,-1.55554 -78.66592,-5.09316 -27.36202,-4.27906 -51.30293,-12.47877 -69.92185,-23.94812 -5.09693,-3.13969 -5.58956,-3.23692 -3.7163,-0.7338 8.42036,11.25118 20.77454,29.59712 21.9328,32.56989 1.2734,3.26823 1.05291,3.57859 -2.54155,3.57859 -2.90055,0 -5.97295,-2.13594 -11.68017,-8.11997 -6.18674,-6.48692 -11.12503,-14.75182 -24.5543,-41.09488 -16.86225,-33.07729 -30.15486,-53.30929 -37.09549,-56.46119 -8.80585,-3.99904 -14.35628,-1.19715 -24.91321,12.57579 -7.84788,10.23874 -15.32793,42.32816 -10.53981,45.2158 0.80561,0.48586 1.46478,2.89441 1.46478,5.35239 0,2.51233 1.29187,5.81089 2.95046,7.53365 1.94773,2.02316 3.05107,5.31872 3.24628,9.69716 0.24918,5.58694 -0.37449,7.31528 -3.95688,10.96397 -2.33895,2.38294 -5.38905,4.33223 -6.77803,4.33223 -4.65186,0 -10.10992,8.14623 -10.10992,15.0893 0,8.00397 4.03294,18.22781 6.78397,17.19769 2.37378,-0.88883 2.71315,1.42249 0.41254,2.80992 -0.87583,0.5282 -1.26737,2.17357 -0.86989,3.65641 0.39736,1.48286 0.12272,3.05768 -0.61017,3.4998 -0.733,0.44199 -0.89901,2.49003 -0.36881,4.55124 1.73844,6.75889 7.75042,13.62821 16.28732,18.60988 4.61662,2.69393 9.71223,6.05071 11.32356,7.45938 1.61134,1.40876 5.89596,4.00686 9.52139,5.77379 3.62545,1.76684 8.62887,4.94587 11.11888,7.06454 6.41077,5.45476 20.0857,8.15555 29.47328,5.82108 9.66804,-2.40427 24.47731,-2.00816 30.58044,0.81786 10.52509,4.87371 14.63511,14.20915 7.82227,17.76715 -1.46808,0.76661 -5.62075,3.88657 -9.22816,6.93321 -8.92836,7.54053 -17.70158,9.48488 -35.95445,7.96848 -7.72043,-0.6414 -17.00341,-1.09905 -20.62885,-1.01683 -7.51794,0.17034 -21.3535,5.70154 -25.49528,10.19254 -1.53476,1.66423 -3.38617,3.02582 -4.11421,3.02582 -0.72795,0 -3.86614,1.9937 -6.97359,4.4305 -4.36524,3.4232 -5.50494,5.2108 -5.01233,7.8617 0.4902,2.6379 -0.011,3.4311 -2.15021,3.4311 -3.70376,0 -12.87239,10.0526 -13.86817,15.2053 -2.93716,15.198 -2.75665,16.7706 2.30939,20.1173 6.45428,4.2637 28.81147,10.4394 37.38243,10.326 3.81462,-0.05 10.89081,-0.9245 15.72475,-1.9423 4.83391,-1.0179 10.10725,-1.6821 11.71849,-1.4762 13.02983,1.6643 17.4757,3.0265 30.552,9.3611 15.82153,7.6645 18.13014,7.9336 28.17008,3.2846 5.99527,-2.7761 11.02211,-1.3026 18.11258,5.3096 2.44003,2.2753 5.40795,4.137 6.59544,4.137 2.7659,0 5.23907,4.5089 5.26742,9.6032 0.012,2.1869 0.24925,7.3529 0.52676,11.4803 0.47964,7.1346 0.32876,7.5042 -3.06503,7.5042 -1.96333,0 -3.20684,0.573 -2.76332,1.2731 0.84681,1.337 -5.28016,5.874 -7.93279,5.874 -3.56182,0 -19.06738,-7.7883 -19.06738,-9.5774 0,-3.0981 -3.7998,-3.7116 -11.63204,-1.8781 -4.07709,0.9545 -8.1066,1.1759 -9.17224,0.5039 -3.27785,-2.0667 -17.2806,-1.4644 -17.28093,0.7434 -1e-4,1.3574 -1.10235,1.6718 -3.66224,1.0448 -2.0142,-0.4932 -3.66214,-0.2925 -3.66214,0.446 0,0.7386 -4.44939,1.754 -9.88755,2.2566 -16.7236,1.5456 -40.50623,7.3731 -45.40947,11.1266 -4.17519,3.1962 -1.78186,11.699 4.13299,14.6837 9.46975,4.7785 38.72638,0.3106 48.23447,-7.3662 1.20847,-0.9756 2.52682,-1.7782 2.92956,-1.7835 0.40287,-0.011 1.88601,-0.4416 3.29587,-0.9696 1.40996,-0.5278 3.55225,-0.5896 4.76073,-0.137 3.29564,1.2341 2.64482,5.1009 -1.09861,6.5269 -1.81272,0.6905 -5.32368,3.4084 -7.80217,6.0396 -5.353,5.6829 -15.2688,19.3051 -15.2688,20.976 0,0.6473 -1.64792,2.6876 -3.66212,4.534 -2.0141,1.8465 -3.66202,4.4317 -3.66202,5.7452 0,2.9547 -3.36276,5.9163 -10.98617,9.6755 -5.96781,2.9428 -11.76917,10.3422 -9.849,12.5621 0.58303,0.674 -0.22006,0.2819 -1.7846,-0.8716 -1.56453,-1.1533 -2.40915,-1.3868 -1.87698,-0.5192 1.70978,2.7877 -6.0546,4.8533 -18.41821,4.9 -13.73458,0.051 -17.14281,1.6756 -17.14281,8.1667 0,3.0552 -1.09392,5.023 -3.72872,6.7075 l -3.72872,2.3842 3.02748,2.4258 c 1.66506,1.3343 3.32891,4.034 3.69761,5.9994 0.36858,1.9654 2.16724,4.6775 3.9971,6.027 15.23145,11.233 17.10866,13.1893 14.9201,15.5491 -2.17636,2.3465 -1.44381,7.0116 1.10103,7.0116 0.76695,0 1.06116,0.5264 0.65368,1.1698 -0.40748,0.6433 1.57806,1.988 4.41238,2.988 4.50455,1.5896 5.50902,1.5043 7.97859,-0.6764 2.72096,-2.403 2.82522,-2.3592 2.82522,1.1863 0,2.899 0.90173,3.8747 4.24264,4.5908 2.33334,0.5001 5.4644,2.2698 6.95787,3.9328 1.49344,1.6628 1.93685,2.5807 0.98557,2.0397 -0.9514,-0.5411 -2.14395,-0.3301 -2.64999,0.469 -0.50602,0.799 0.19457,1.4527 1.55697,1.4527 3.64609,0 11.08011,4.8602 18.48247,12.0836 4.70484,4.5909 7.34481,6.1543 9.47503,5.6106 2.3562,-0.6011 2.92693,-0.083 2.82488,2.5687 -0.11415,2.9618 0.52986,3.322 5.93978,3.322 h 6.06767 l -3.01275,4.1243 c -2.89157,3.9583 -3.09723,4.0158 -5.11165,1.4293 -1.94071,-2.4918 -2.03683,-2.3718 -1.27594,1.5932 0.80167,4.1768 0.49109,4.4449 -11.94218,10.3132 -7.02094,3.3138 -17.65697,7.0889 -23.63565,8.3892 -5.97867,1.3003 -13.88871,3.9206 -17.57788,5.823 -6.14038,3.1665 -14.76399,12.7453 -14.76399,16.3997 0,0.8334 -1.38579,3.4144 -3.07953,5.7354 -2.37818,3.2592 -2.85717,5.3764 -2.10318,9.2979 0.72607,3.7767 0.33441,5.7697 -1.52862,7.7785 -3.52568,3.8016 -4.55695,15.8519 -1.5641,18.2758 2.05396,1.6634 1.9183,2.4329 -1.30814,7.4204 -1.97992,3.0605 -3.59982,6.785 -3.59982,8.2766 0,1.4918 -1.01876,3.5373 -2.26393,4.5457 -1.24517,1.0083 -1.94971,2.6324 -1.56576,3.6087 0.38397,0.9765 0.24917,2.2134 -0.29947,2.7488 -0.54876,0.5355 -1.02556,1.4025 -1.05951,1.9265 -0.0341,0.5242 -1.55651,4.1692 -3.3834,8.1 -1.82689,3.9308 -3.65851,9.7198 -4.07027,12.8644 -0.41177,3.1446 -2.04662,8.499 -3.63302,11.8983 -1.5864,3.3994 -3.52491,9.4768 -4.30779,13.5052 -0.78299,4.0285 -2.15945,7.7682 -3.05889,8.3107 -0.89943,0.5424 -1.18232,1.7014 -0.62873,2.5753 0.55348,0.8742 0.1437,1.5991 -0.91097,1.6112 -1.17113,0.013 -1.34724,0.4307 -0.45262,1.0719 2.04671,1.4675 2.6503,6.0532 0.79659,6.0532 -0.84098,0 -1.52905,0.6812 -1.52905,1.5136 0,0.8328 0.82396,1.0437 1.83105,0.4691 1.00701,-0.5746 0.67742,0.242 -0.73244,1.8149 -1.47588,1.6465 -2.5634,5.1603 -2.5634,8.2824 0,4.9136 -0.23269,5.2386 -2.47847,3.4608 -1.41194,-1.1174 -2.03201,-1.2352 -1.44095,-0.2737 0.57063,0.9284 0.28421,2.1423 -0.63643,2.6977 -1.03018,0.6211 0.0505,1.7169 2.81104,2.8495 4.16847,1.7102 10.74809,10.6322 7.84081,10.6322 -0.71684,0 -1.22813,2.3938 -1.13629,5.3194 0.15545,4.9491 -0.32893,5.5835 -6.95446,9.1079 -3.9169,2.0836 -7.54234,4.3532 -8.05649,5.0435 -1.61266,2.1651 -10.85325,2.6618 -25.83696,1.3888 -3.22256,-0.2739 -6.80977,0.2273 -7.97157,1.1136 -1.61771,1.2343 -1.85457,1.1935 -1.01215,-0.1749 0.7975,-1.2953 -0.43483,-1.8335 -4.47951,-1.9561 -3.06865,-0.094 -6.2386,-0.04 -7.04433,0.1187 -0.80561,0.1586 -4.15144,0.2884 -7.43511,0.2884 -3.28376,0 -6.76089,0.4766 -7.72713,1.0594 -0.96622,0.5827 -6.89809,0.2612 -13.18185,-0.7145 -13.41797,-2.0835 -41.29539,-3.0283 -43.85231,-1.4863 -0.97744,0.5895 -1.77711,0.6663 -1.77711,0.1707 0,-0.4956 -0.98876,0.064 -2.19724,1.2429 -1.20848,1.1792 -2.19724,2.5799 -2.19724,3.1126 0,0.5326 -1.64793,2.2332 -3.66202,3.7792 -2.01421,1.5459 -3.66213,3.5888 -3.66213,4.5395 0,2.9616 -7.38786,2.4952 -13.72041,-0.8664 -3.33002,-1.7675 -6.28859,-3.7378 -6.57446,-4.3781 -0.51381,-1.151 -6.55962,-3.9335 -10.09431,-4.6454 -1.00392,-0.2024 -2.2593,0.3174 -2.78983,1.1552 -0.56886,0.898 -0.2707,1.1043 0.72663,0.503 2.78829,-1.6816 1.90796,1.191 -1.14729,3.7436 -1.56114,1.3044 -3.04636,1.7625 -3.30069,1.0184 -0.25421,-0.7444 -1.33272,0 -2.39663,1.669 -1.60398,2.5064 -1.6031,2.8356 0,1.9279 1.06653,-0.602 0.49602,0.4563 -1.26792,2.3516 -1.76394,1.8958 -3.24707,4.09 -3.29584,4.8762 -0.0482,0.7861 -0.58315,1.4392 -1.18739,1.4512 -2.25634,0.046 -4.77865,2.3669 -3.96568,3.6505 0.46351,0.7318 -0.1849,1.3305 -1.44095,1.3305 -1.25594,0 -3.49216,1.1256 -4.96916,2.5013 -1.47709,1.3759 -3.54984,2.6934 -4.60626,2.9279 -4.80042,1.0652 -40.44703,3.0678 -55.27847,3.1055 -16.04444,0.04 -16.54067,-0.054 -21.23992,-4.08 z m 327.55218,-300.0998 c 0.41495,-0.6552 -0.20532,-1.1911 -1.37831,-1.1911 -1.17299,0 -2.13287,0.5359 -2.13287,1.1911 0,0.6551 0.6203,1.1912 1.37845,1.1912 0.75805,0 1.71789,-0.5361 2.13273,-1.1912 z m -1.31393,-121.1286 c 4.22713,-3.1167 4.07257,-13.7068 -0.2617,-17.9363 -2.91155,-2.8411 -3.60268,-2.9477 -7.88489,-1.217 -7.01939,2.8372 -13.09429,8.3036 -12.08379,10.8731 0.90514,2.302 13.30371,10.4904 15.83591,10.4587 0.80573,-0.01 2.78324,-0.9903 4.39447,-2.1785 z M 587.9778,905.28053 c 0,-3.8615 2.25822,-4.82355 5.01277,-2.13562 2.11593,2.06474 2.70449,1.88754 6.70981,-2.0209 2.41475,-2.35636 4.3904,-4.89827 4.3904,-5.64859 0,-0.75043 1.02743,-2.1963 2.28304,-3.21323 1.25561,-1.01683 5.27094,-5.68268 8.92286,-10.36857 4.65913,-5.97813 6.448,-9.49978 5.99636,-11.805 -0.49669,-2.53569 0.15534,-3.4808 2.85838,-4.14289 1.92609,-0.47171 3.92481,-1.9641 4.44149,-3.31648 0.51668,-1.35238 2.13637,-3.2993 3.59929,-4.32664 1.46293,-1.02724 2.65987,-2.7425 2.65987,-3.81164 0,-1.06915 0.73529,-2.18311 1.63396,-2.47546 2.39445,-0.77884 3.45737,-18.6355 1.33934,-22.49754 -2.04486,-3.72834 -12.31177,-8.59101 -16.74184,-7.92935 -1.69232,0.2528 -7.69107,0.85013 -13.33062,1.3274 -8.929,0.75569 -21.27021,3.7067 -34.65466,8.28678 -5.58,1.90952 -17.17721,13.2144 -19.7715,19.27315 -1.99146,4.65105 -1.9808,5.28645 0.10767,6.42689 1.42677,0.77916 2.31742,3.1934 2.31742,6.28173 0,3.04428 0.58709,4.66209 1.49347,4.11557 0.82142,-0.4954 3.77243,-0.16681 6.55786,0.73027 2.78544,0.89697 5.43114,1.42517 5.87925,1.17367 0.44812,-0.2515 1.67638,1.15073 2.72953,3.1161 1.58397,2.95626 1.57497,3.96387 -0.0516,5.83363 -1.08159,1.24303 -1.47072,2.79341 -0.86472,3.44522 0.60599,0.65191 0.37429,0.78065 -0.51493,0.28622 -1.45842,-0.81098 -5.79113,5.83824 -4.57651,7.02349 0.27949,0.27262 2.93836,-0.7753 5.90881,-2.3288 6.87381,-3.59509 7.53134,-3.55146 9.48315,0.62865 1.28824,2.7589 1.17793,3.6161 -0.54833,4.26244 -1.88774,0.70689 -1.87248,1.23841 0.12075,4.20689 1.25485,1.86879 1.86325,4.46152 1.35195,5.76159 -0.93887,2.38743 1.5997,6.61545 3.97206,6.61545 0.70696,0 1.2855,-1.24849 1.2855,-2.77443 z m -18.60573,-28.62534 c -0.75179,-2.80532 -4.8314,-7.06925 -4.8314,-5.04963 0,0.58555 -0.9301,0.31143 -2.06683,-0.60913 -1.26166,-1.02166 -2.40453,-1.14066 -2.93363,-0.30532 -0.86252,1.36192 7.05346,8.77605 9.3701,8.77605 0.6684,0 0.87626,-1.26544 0.46176,-2.81197 z m 414.84025,-72.14568 c 9.66782,-1.11868 22.52168,-3.00709 28.56408,-4.1965 6.0423,-1.18944 14.1171,-2.59284 17.9441,-3.11879 3.8267,-0.52594 6.9578,-1.56432 6.9578,-2.30768 0,-0.74325 -0.6187,-0.97834 -1.3746,-0.5223 -0.7562,0.45605 -1.9849,-0.23445 -2.7303,-1.53441 -1.5832,-2.76028 0.019,-10.83769 4.0521,-20.43782 1.5164,-3.60871 3.5574,-10.09895 4.5359,-14.42281 0.9784,-4.32397 3.0868,-11.07783 4.6855,-15.00858 4.7372,-11.64944 6.612,-19.84242 5.3195,-23.25118 -1.8673,-4.92613 -5.6992,-2.46805 -5.6992,3.65598 0,6.82526 -5.6098,18.26587 -7.8738,16.05757 -1.5452,-1.50729 -1.7199,-7.7023 -0.6457,-22.90609 0.3786,-5.35977 -0.2684,-7.31497 -3.8815,-11.72609 -2.3848,-2.91167 -4.5098,-5.12468 -4.7217,-4.91766 -0.212,0.2069 0.9887,3.87552 2.6683,8.15265 2.5864,6.58576 2.8203,8.76125 1.527,14.20862 -0.8395,3.53774 -1.9441,8.91895 -2.4543,11.95829 -0.5102,3.03924 -2.5302,7.21238 -4.489,9.27359 -3.4782,3.66059 -7.9607,15.68719 -7.9607,21.35957 0,1.56368 -0.9889,3.21333 -2.1973,3.66595 -3.2366,1.21193 -2.8407,-2.03206 2.9296,-24.00171 2.8198,-10.73597 5.1268,-22.9985 5.1268,-27.25022 0,-4.25172 1.0901,-11.46034 2.4224,-16.01919 2.907,-9.94726 4.0648,-21.72856 2.7879,-28.36954 -1.1386,-5.92184 -3.0306,-6.5194 -32.3094,-10.20293 -27.52286,-3.46259 -100.50369,-3.77745 -106.19964,-0.45809 l -3.66215,2.13401 3.99557,0.45926 c 2.31621,0.26619 5.19672,2.10527 6.85328,4.37543 1.57183,2.15395 5.37672,5.16799 8.45554,6.69778 3.07875,1.52982 7.16965,3.90718 9.09105,5.28292 1.92138,1.37575 6.04955,2.5014 9.17363,2.5014 12.16186,0 43.25324,11.997 47.12071,18.18213 0.65705,1.05093 4.72336,3.85399 9.03601,6.2291 9.52276,5.24433 10.9136,6.78258 11.99122,13.26243 1.82578,10.97911 -3.45263,16.92378 -11.47592,12.92454 -2.14618,-1.0698 -7.58789,-2.36782 -12.09275,-2.88444 -5.48023,-0.62854 -9.52104,-2.05585 -12.21089,-4.31336 -4.18498,-3.51222 -11.18873,-4.50686 -12.88427,-1.82987 -1.74947,2.76234 -12.9663,6.62973 -24.152,8.32729 -6.01087,0.9121 -13.2359,2.02113 -16.05564,2.46431 l -5.12688,0.80586 9.28314,3.41467 c 5.10561,1.8781 13.67489,4.33543 19.04263,5.46075 5.36775,1.12532 9.26529,2.17881 8.66104,2.34124 -0.60426,0.16231 -1.75774,0.45604 -2.56353,0.65255 -0.80562,0.1965 -1.79436,0.51811 -2.19727,0.71472 -0.40272,0.19651 -1.88592,0.44759 -3.29588,0.55789 -1.40978,0.11032 -3.29338,0.65448 -4.18563,1.20916 -0.89234,0.55479 -7.97769,1.18825 -15.74512,1.40759 -7.76753,0.21934 -14.12348,0.91917 -14.12437,1.55521 0,0.63604 -0.66118,0.75889 -1.46671,0.27294 -0.80561,-0.48584 -1.46481,0.11943 -1.46481,1.34509 0,1.22557 -0.49437,2.15224 -1.09863,2.05918 -0.60416,-0.0933 -1.42817,-0.0385 -1.83108,0.12071 -0.40289,0.15963 -3.45919,0.55832 -6.79197,0.88594 -5.04682,0.49625 -7.73591,-0.36 -16.08978,-5.12372 -5.51661,-3.14558 -10.7658,-5.71945 -11.66467,-5.71945 -4.17816,0 -14.09934,-9.27648 -19.913,-18.61888 -3.48184,-5.59541 -7.44457,-11.89623 -8.80596,-14.00193 -1.36141,-2.10571 -3.27707,-6.40149 -4.25714,-9.5461 l -1.78186,-5.71751 -1.35965,5.71751 c -3.1996,13.45391 3.22049,48.74849 11.62668,63.91907 5.44639,9.82879 11.04384,15.09251 22.46968,21.1295 17.79541,9.40254 30.34414,12.78656 52.68077,14.20636 28.51753,1.81272 61.41423,1.58941 79.83277,-0.54191 z m -344.0625,-20.88026 c 18.76769,-1.71569 30.91323,-4.30413 29.858,-6.36331 -0.40276,-0.78624 -2.05068,-1.32409 -3.66203,-1.19543 -1.61134,0.12886 -10.80545,0.97791 -20.4313,1.88711 -44.27067,4.18139 -85.46309,1.4301 -127.31064,-8.5031 -24.8182,-5.89109 -30.42959,-8.61686 -42.85605,-20.81733 -11.76961,-11.55553 -15.28606,-19.24186 -18.29132,-39.98189 -1.97444,-13.6251 -0.82299,-61.79868 1.53189,-64.09659 3.34378,-3.26286 1.30287,-3.82247 -3.01041,-0.82548 -7.16013,4.97513 -8.94142,11.05308 -9.39187,32.0461 -0.96974,45.20112 6.37913,82.13379 16.83257,84.59317 2.04113,0.48028 11.2917,3.61396 20.55667,6.96388 39.18318,14.16701 104.68075,20.99999 156.17449,16.29287 z m 290.00355,-63.53891 c 2.96788,-1.96538 4.80991,-3.63722 4.09326,-3.71527 -8.1882,-0.89097 -8.93304,-0.67646 -11.23327,3.23466 -3.11636,5.29847 -0.41052,5.48061 7.14001,0.48061 z m 148.74683,-18.93932 c 0.7916,-15.04835 -1.5597,-18.72663 -15.6635,-24.50366 -12.8405,-5.25964 -16.2788,-4.99067 -5.3409,0.41789 7.6555,3.78549 13.4735,9.63357 13.4735,13.5431 0,3.14483 4.8695,14.46151 6.2254,14.46805 0.6044,0 1.1919,-1.76351 1.3055,-3.92538 z m -304.83839,-3.12223 c -0.83396,-1.52057 -1.51632,-3.12863 -1.51632,-3.57343 0,-1.48755 7.07268,-0.82987 7.59749,0.70648 0.33586,0.98317 2.01827,0.75547 4.79108,-0.64826 l 4.27339,-2.16338 -3.83361,-1.42227 c -5.18065,-1.92207 -14.00431,-0.39871 -14.69445,2.53687 -0.30081,1.27927 0.4278,3.45165 1.61904,4.8274 2.85442,3.29653 3.65058,3.17764 1.76338,-0.26341 z m 5.07538,-27.25235 c -0.49789,-0.78613 -2.2237,-1.42935 -3.83493,-1.42935 -1.61134,0 -2.52231,0.64322 -2.02443,1.42935 0.498,0.78624 2.22372,1.42946 3.83506,1.42946 1.61123,0 2.5222,-0.64322 2.0243,-1.42946 z m 265.13301,0 c -0.498,-0.78613 -1.6905,-1.41949 -2.6501,-1.40749 -1.0482,0.0128 -0.8675,0.57494 0.4527,1.40749 2.814,1.77466 3.3212,1.77466 2.1974,0 z m -237.50683,-4.4569 c 3.23685,-1.43911 3.44262,-2.02327 2.06792,-5.87125 -2.89848,-8.11375 -17.4823,-11.00922 -23.9014,-4.74539 -4.52401,4.41456 -4.65288,9.03345 -0.29959,10.74089 4.68735,1.83855 17.88515,1.76447 22.13307,-0.12425 z m -64.68825,-13.41038 c -0.80055,-5.18428 -6.98687,-8.74196 -23.15138,-13.314 -16.40014,-4.63872 -32.75636,-6.58009 -37.92975,-4.50182 -2.73467,1.09851 -2.70029,1.18353 0.51635,1.27733 4.93893,0.14398 26.57093,7.52047 41.96355,14.30949 14.28049,6.29847 19.32302,6.90266 18.60123,2.229 z m -362.10215,1.65083 c 0,-0.27122 -1.26846,-1.6132 -2.8186,-2.98221 -2.68546,-2.37156 -2.79455,-2.36513 -2.30941,0.13583 0.28015,1.44361 0.55974,2.78571 0.62138,2.98221 0.17338,0.55264 4.50663,0.42207 4.50663,-0.13583 z m -14.28653,-10.21054 c -0.38319,-1.95627 -1.22428,-3.23863 -1.86896,-2.84992 -0.64468,0.38884 -1.43216,-0.0536 -1.74998,-0.98435 -0.33738,-0.98788 -1.36448,-1.21698 -2.46904,-0.55081 -1.44028,0.86867 -1.07049,1.93075 1.55136,4.45487 4.46061,4.29437 5.38882,4.28011 4.53662,-0.0697 z m 603.00016,-0.85421 c 22.83514,-0.18074 15.17363,-1.96762 -24.02444,-5.60323 -14.31695,-1.32794 -17.33759,-1.1874 -27.09913,1.26136 -8.69379,2.18086 -10.22208,2.93203 -7.32415,3.5998 5.83366,1.34413 20.32692,1.97567 32.08086,1.39784 5.96256,-0.29309 17.82766,-0.58823 26.36686,-0.65577 z M 381.34834,620.91087 c 1.04347,-1.90255 2.64085,-2.92077 3.86383,-2.4628 1.14664,0.42935 2.08485,0.1577 2.08485,-0.60377 0,-0.76158 -0.772,-1.38455 -1.71571,-1.38455 -0.9436,0 -2.75631,-0.88797 -4.0282,-1.9733 -3.53304,-3.01447 -30.25162,-16.63336 -35.5319,-18.11117 -6.94491,-1.94361 -3.62227,0.47277 10.51452,7.64655 l 12.45106,6.31839 -0.45514,5.40352 c -0.3787,4.49518 0.35628,6.22063 4.3715,10.26308 4.81392,4.84649 4.8292,4.85056 5.74655,1.50353 0.50579,-1.84572 1.7202,-4.8155 2.69864,-6.59948 z m 599.40597,-7.35752 c -1.96449,-1.59691 -5.44424,-2.74797 -8.0566,-2.66489 l -4.5984,0.14634 4.44471,1.03946 c 2.44458,0.57171 5.74038,1.77272 7.32405,2.66905 4.36166,2.46827 4.74804,1.94951 0.88624,-1.18996 z m 94.84899,-381.66189 c -2.7581,-7.23113 -14.3156,-22.84831 -12.1181,-16.37511 1.2518,3.68815 14.0442,25.19704 14.6402,24.61567 0.2491,-0.24303 -0.886,-3.95121 -2.5221,-8.24056 z m -662.77716,-9.90309 c -3.16466,-2.33662 -6.49721,-4.2663 -7.40567,-4.28816 -0.90845,-0.0214 -2.5021,-1.03977 -3.54162,-2.2619 -1.03939,-1.22224 -3.18477,-2.89848 -4.76756,-3.72502 -2.0275,-1.05875 -1.47456,0.20101 1.87117,4.26362 4.89621,5.94532 11.82541,10.17023 16.77335,10.22727 2.11386,0.0247 1.37691,-1.03624 -2.92967,-4.21581 z M 983.0687,164.69142 c -4.89149,-6.91703 -8.19007,-9.76951 -16.4053,-14.18654 -12.3889,-6.66113 -23.76795,-10.82579 -21.14149,-7.73767 0.93291,1.09691 2.23084,1.99442 2.88428,1.99442 2.66838,0 17.48787,9.8376 28.48208,18.90717 6.44518,5.317 11.85,9.67024 12.01078,9.67388 0.1606,0 -2.46299,-3.88937 -5.83035,-8.65126 z m -23.0259,-57.58705 c 0,-0.27123 -1.48321,-1.71849 -3.29588,-3.21613 l -3.29581,-2.72298 2.79049,3.21611 c 2.62241,3.0223 3.8012,3.86686 3.8012,2.723 z m -355.48885,-9.5133 c -0.45295,-3.60516 -2.07846,-10.62833 -2.5712,-11.10924 -0.25586,-0.24957 -3.34682,0.18117 -6.86888,0.95733 -3.52206,0.77627 -8.19732,1.77766 -10.38962,2.22534 -2.19229,0.44779 -4.70351,2.12232 -5.58053,3.72138 -1.46085,2.6636 -1.34845,2.75729 1.34064,1.11857 2.4286,-1.47996 3.39154,-1.38894 5.58042,0.52755 5.48189,4.79974 19.00587,6.67163 18.48917,2.55907 z m 274.85083,-6.51705 c -2.68153,-3.15287 -12.92785,-7.75482 -15.2937,-6.86899 -1.09039,0.40834 -3.51712,-0.0847 -5.3928,-1.09595 -1.87567,-1.01104 -7.69493,-2.00707 -12.93171,-2.21333 -8.91088,-0.35099 -9.28651,-0.24347 -5.85926,1.67763 2.0141,1.12896 6.6283,2.07966 10.25373,2.11268 4.03841,0.0364 8.2939,1.16016 10.98617,2.89997 2.41696,1.56196 6.70156,2.8541 9.52139,2.87125 2.81984,0.0172 6.11564,0.65491 7.32412,1.41692 3.15016,1.9866 3.56131,1.75032 1.39206,-0.80018 z m 35.22854,-8.49078 c -1.00293,-1.17924 -2.56677,-2.12371 -3.47516,-2.09863 -0.90851,0.0247 -0.3722,0.98982 1.19171,2.14409 3.65274,2.69597 4.59903,2.6771 2.28345,-0.0451 z M 808.16146,78.47171 c 0.50887,-1.29406 2.19186,-1.7164 4.9174,-1.23399 2.2791,0.4034 3.73267,0.29797 3.23028,-0.23426 -1.44997,-1.5359 -15.94467,-3.41828 -16.73337,-2.17307 -0.68686,1.08442 4.82249,5.60877 6.82988,5.60877 0.5402,0 1.33033,-0.8854 1.75581,-1.96745 z M 786.24625,1496.9401 c 0.48592,-2.3711 1.92928,-11.8586 3.2074,-21.0835 1.27814,-9.225 2.87234,-19.024 3.54261,-21.7753 2.90243,-11.9143 1.10202,22.2796 -2.23898,42.5241 -0.48932,2.9649 -1.60388,4.6456 -3.08064,4.6456 -1.7925,0 -2.11484,-0.9714 -1.43039,-4.3109 z m -141.94421,-17.2427 c -0.37123,-0.5861 0.29783,-0.9264 1.48687,-0.756 3.06086,0.4383 4.16178,1.8217 1.44973,1.8217 -1.24384,0 -2.56537,-0.4794 -2.9366,-1.0657 z m 150.45727,-62.173 c -0.13292,-3.2036 -1.62814,-13.1737 -3.32298,-22.1555 -2.85058,-15.1074 -3.01042,-19.4354 -2.13396,-57.7829 0.93241,-40.7965 3.40298,-67.3612 5.7204,-61.5079 2.04089,5.1553 4.22462,69.7398 3.19126,94.3839 -1.22958,29.3231 -3.12162,55.0979 -3.45472,47.0624 z"
     id="path4487"
     inkscape:connector-curvature="0" />
</svg>
